<svg width="520" height="113" viewBox="0 0 520 113" fill="none" xmlns="http://www.w3.org/2000/svg">
<path fill-rule="evenodd" clip-rule="evenodd" d="M24.066 0.268521C23.895 0.549131 23.0971 3.41135 22.2993 6.66643C21.5014 9.9215 20.7035 13.4572 20.5325 14.5235C20.3616 15.5898 19.5637 19.4061 18.7088 22.9418C17.911 26.4775 17.0561 30.6305 16.7712 32.2019C16.4862 33.7172 15.8593 36.6356 15.3464 38.6559C14.8335 40.6763 14.1496 43.5386 13.9216 45.11C13.8015 45.7486 13.6409 46.5668 13.474 47.4173L13.4739 47.4177L13.4737 47.4185C13.2446 48.5855 13.0036 49.8134 12.8388 50.7222C12.6183 51.8946 12.159 53.9069 11.7513 55.6934L11.7513 55.6935L11.7512 55.6938L11.7508 55.6954L11.7504 55.6973L11.7499 55.6995L11.7493 55.7022L11.7486 55.7052C11.6303 56.2234 11.5164 56.7225 11.414 57.1762C10.9011 59.1966 10.3312 61.7221 10.1602 62.7884C9.98925 63.8547 9.36235 66.773 8.73545 69.2424C8.10855 71.7118 7.36767 75.1352 7.02573 76.8189C6.84407 77.8922 6.56976 79.3533 6.32094 80.6786L6.3209 80.6789C6.17942 81.4324 6.04619 82.1421 5.9429 82.7117C5.71494 84.227 5.08804 87.0331 4.57512 88.8851C4.0622 90.7371 3.37831 93.6555 3.09336 95.3391C2.83056 96.8919 2.03457 100.688 1.33122 104.042L1.15567 104.88C0.414792 108.416 -0.0981251 111.502 0.0158565 111.727C0.129838 112.007 6.34184 112.176 13.8076 112.176C24.18 112.232 27.4854 112.063 27.9414 111.502C28.3403 111.109 28.9102 109.37 29.3091 107.686C29.7081 106.002 30.221 103.477 30.5059 102.074C30.6231 101.353 30.8155 100.335 31.0135 99.2881C31.2009 98.2974 31.3933 97.28 31.5318 96.4616C31.8737 94.7779 32.5576 91.7473 33.0135 89.7269C33.5265 87.7065 34.0964 85.3494 34.2103 84.3953C34.3813 83.4413 34.8942 81.0842 35.3502 79.0638C35.6988 77.6906 36.021 76.3175 36.2275 75.4376C36.3249 75.0229 36.3965 74.7178 36.433 74.574C36.661 73.8444 38.9976 73.676 50.7947 73.2832C58.6024 73.0587 66.2392 72.6097 67.7779 72.3291C68.4714 72.2316 69.3155 72.0916 70.1652 71.9507L70.1656 71.9507L70.1662 71.9506C71.2717 71.7673 72.3867 71.5825 73.1921 71.4873C74.6168 71.2628 76.8965 70.7016 78.3212 70.2526C79.746 69.7475 82.5386 68.5689 84.5902 67.671C87.2118 66.4924 89.4344 64.8088 92.284 62.0027C94.8486 59.4211 97.0712 56.5027 98.496 53.8089C99.7498 51.5079 100.947 48.7018 101.175 47.6355C101.289 47.209 101.494 46.3875 101.754 45.3469L101.754 45.3465C102.143 43.7854 102.656 41.7314 103.169 39.7784C103.967 36.5233 104.879 32.4825 105.164 30.7989C105.449 29.1152 105.848 25.804 106.019 23.503C106.304 20.3602 106.133 18.452 105.392 15.9265C104.822 14.0745 103.796 11.6052 103.055 10.4266C102.314 9.30416 100.32 7.33989 98.724 6.10521C97.0712 4.87052 95.3045 3.86033 94.8486 3.86033C94.3926 3.86033 93.7657 3.63584 93.4238 3.35523C93.0819 3.07462 90.8022 2.23279 88.2946 1.55933C83.9063 0.380766 82.5386 0.324643 54.0431 0.0440336C37.7438 -0.0682103 24.237 0.0440336 24.066 0.268521ZM315.973 2.34503C315.46 2.73789 314.548 4.92664 313.807 7.22764C313.123 9.52864 311.984 12.5592 311.243 13.9623C310.502 15.3653 309.02 17.049 307.937 17.7786C306.854 18.452 305.145 19.0133 304.119 19.0133C303.15 19.0133 301.839 19.2377 301.269 19.5184C300.642 19.799 299.958 21.4826 299.275 24.401C298.705 26.8703 297.622 31.6407 296.881 35.008C296.141 38.3694 295.288 42.5697 294.945 44.2592L294.945 44.2604L294.944 44.2668L294.943 44.2681C294.764 45.1524 294.584 46.1295 294.429 46.9718L294.429 46.9723C294.289 47.7336 294.17 48.3849 294.088 48.7579C293.917 49.5436 293.405 51.7885 292.892 53.8089C292.379 55.8293 291.752 58.7476 291.467 60.2629C291.182 61.8343 290.27 66.0996 289.472 69.8036C288.617 73.5077 287.819 77.2679 287.705 78.2219C287.59 78.8654 287.319 80.0958 287.033 81.397L287.032 81.4021L287.029 81.4153L287.029 81.4163C286.892 82.0384 286.751 82.6761 286.623 83.2729C286.167 85.1249 285.654 88.6606 285.426 91.13C285.141 94.4973 285.312 96.5177 286.053 99.2677C286.566 101.288 287.535 103.645 288.218 104.599C288.902 105.553 289.985 106.732 290.612 107.293C291.239 107.798 292.664 108.752 293.746 109.313C294.829 109.875 297.508 110.885 299.731 111.502C302.295 112.232 306.227 112.737 310.844 112.905C314.776 113.074 319.905 113.018 322.242 112.737C324.579 112.512 328.682 111.895 331.36 111.446C334.039 110.997 336.718 110.38 337.344 110.043C338.142 109.706 338.769 108.303 339.51 105.666C340.023 103.533 340.479 100.839 340.479 99.7166V97.584C323.496 97.584 317.74 97.4718 316.828 97.2473C315.859 97.0789 314.491 96.4616 313.693 95.9003C312.383 94.8901 312.268 94.5534 312.268 89.8953C312.326 87.2014 312.61 83.5535 313.009 81.8699C313.226 80.8032 313.603 79.1961 313.966 77.6476C314.176 76.7518 314.381 75.8757 314.548 75.1352C315.061 73.1148 315.688 70.1965 315.973 68.6812C316.258 67.1659 316.885 64.2476 317.398 62.2272C317.854 60.2068 318.538 57.0639 318.879 55.2119C318.982 54.659 319.099 54.0361 319.219 53.3968L319.224 53.3743L319.227 53.3583L319.227 53.3572L319.227 53.3548L319.229 53.3476C319.509 51.8603 319.804 50.2925 319.962 49.3191C320.247 47.9161 320.874 45.1661 321.387 43.1457C321.69 41.9525 322.013 40.6418 322.273 39.5836L322.279 39.562L322.281 39.5522L322.285 39.5349L322.286 39.5338C322.461 38.8224 322.607 38.2295 322.698 37.8702C322.926 37.0284 323.382 36.0743 323.667 35.8498C323.952 35.6254 326.801 35.2886 329.936 35.1203C333.07 34.9519 339.852 34.3907 345.038 33.9417C350.224 33.4927 354.499 33.0999 354.556 33.0437C354.67 33.0437 354.841 32.0897 355.012 30.9672C355.183 29.7887 355.753 26.9826 356.322 24.7938C356.835 22.5489 357.063 20.5285 356.835 20.3041C356.55 20.0235 349.768 19.7428 341.733 19.5745L327.086 19.2939C327.143 15.8143 327.77 12.7837 328.397 10.3144C329.081 7.84499 329.651 4.98277 329.651 4.02869C329.651 2.56952 329.366 2.12055 328.34 1.89606C327.656 1.72769 324.749 1.61545 321.957 1.61545C318.594 1.61545 316.486 1.83994 315.973 2.34503ZM138.732 20.3602C143.918 19.8551 151.212 19.2377 154.974 19.0694C158.735 18.8449 164.377 18.7888 167.512 18.901C171.102 19.0133 174.465 19.5184 176.63 20.2479C178.511 20.8653 181.076 21.9877 182.329 22.6612C183.583 23.3908 185.578 24.9622 186.718 26.1407C188.029 27.4877 189.225 29.5642 189.966 31.8091C190.65 33.7172 191.163 36.6356 191.163 38.207C191.163 39.8345 190.764 42.809 190.308 44.8294C189.795 46.8498 188.769 50.7783 187.972 53.5283C187.887 53.8003 187.8 54.08 187.711 54.3674L187.707 54.3817L187.7 54.403L187.699 54.405C186.889 57.0171 185.881 60.2658 184.552 64.1914L164.377 64.472L164.719 61.217C164.89 59.4772 165.289 57.2884 165.574 56.3344C165.859 55.3803 166.486 53.0793 166.942 51.115C167.398 49.2069 167.797 46.064 167.797 44.0998C167.797 42.1916 167.455 40.0029 167.056 39.2172C166.714 38.4876 165.46 37.2529 164.377 36.5794C162.497 35.3447 161.87 35.2325 153.093 35.2886C148.021 35.2886 143.861 35.457 143.861 35.6815L143.84 35.7831L143.825 35.8579C143.736 36.3055 143.534 37.3199 143.291 38.3753C143.006 39.61 142.379 42.2477 141.866 44.2681C141.353 46.2885 140.726 49.1507 140.441 50.7222C140.382 51.0384 140.315 51.3987 140.243 51.7851C139.971 53.2501 139.629 55.0909 139.358 56.3344C139.073 57.8497 138.39 60.9364 137.877 63.069C137.364 65.2016 136.737 68.2322 136.452 69.8036C136.167 71.3189 135.54 74.2373 135.084 76.2577C134.571 78.2781 133.887 81.2525 133.602 82.8239C133.442 83.5891 133.256 84.59 133.068 85.599L133.068 85.5994L133.068 85.5997L133.068 85.6013L133.068 85.6025L133.067 85.6035L133.067 85.6037C132.856 86.7395 132.643 87.8852 132.463 88.7167C132.178 90.3443 131.494 93.3187 130.981 95.3391C130.525 97.3595 129.898 100.222 129.613 101.793C129.328 103.308 128.815 106.002 128.416 107.686C128.074 109.37 127.447 111.109 127.105 111.502C126.649 112.063 123.572 112.232 114.339 112.176C105.221 112.176 102.2 112.007 101.972 111.502C101.801 111.109 102.314 107.742 103.169 104.038C103.967 100.334 104.822 95.9003 105.107 94.2167C105.392 92.533 106.076 89.6147 106.589 87.7627C107.102 85.9106 107.728 83.1607 108.013 81.5892C108.154 80.6566 108.359 79.4688 108.536 78.4446L108.536 78.4441C108.646 77.8045 108.746 77.2288 108.811 76.8189C109.039 75.7526 109.723 72.722 110.35 70.0842C111.034 67.4465 111.775 64.0792 112.003 62.5078C112.231 60.9925 112.858 58.0741 113.371 56.0537C113.884 54.0334 114.51 51.2834 114.795 49.8803C114.997 48.6423 115.331 46.8363 115.563 45.5803L115.563 45.5791L115.65 45.11C115.878 43.8753 116.619 40.3396 117.36 37.2529C118.101 34.1662 118.842 30.9111 119.013 29.957C119.184 29.003 119.526 27.2632 119.811 26.0285C120.096 24.7938 120.494 23.3908 120.722 22.9418C120.95 22.3806 122.375 21.9877 125.225 21.7071L125.672 21.6619L125.672 21.6619L125.672 21.6619L125.673 21.6618L125.674 21.6617L125.675 21.6616L125.677 21.6615C128.192 21.4073 133.864 20.8343 138.732 20.3602ZM236.186 20.1357C233.222 20.3041 229.347 20.8092 227.637 21.202C225.927 21.5949 222.85 22.4367 220.798 23.1102C218.747 23.7275 215.669 25.0744 213.959 26.0846C212.25 27.0387 209.229 29.5081 207.234 31.5846C204.955 33.9417 203.017 36.7478 201.763 39.3294C200.681 41.5743 199.256 45.4467 198.572 47.9161C197.888 50.3854 197.09 52.967 196.805 53.6405C196.52 54.3701 196.292 55.6048 196.292 56.4466C196.292 57.3446 195.779 60.0384 195.095 62.5078C194.469 64.9771 193.671 68.4006 193.386 70.0842C193.131 71.3404 192.812 73.1278 192.548 74.607L192.547 74.6135C192.458 75.1144 192.375 75.5798 192.303 75.9771C192.018 77.4923 191.391 80.6913 190.878 82.9923C190.365 85.2933 189.795 88.9973 189.624 91.13C189.396 94.2167 189.567 95.8442 190.479 98.7064C191.277 101.176 192.474 103.252 194.184 105.16C195.551 106.676 197.774 108.528 199.199 109.145C200.567 109.819 203.473 110.941 205.696 111.671C209.457 112.905 210.54 112.961 224.788 112.961C238.522 112.905 240.289 112.793 244.279 111.727C246.729 111.053 249.807 110.099 251.117 109.65C252.485 109.201 254.936 107.967 256.646 107.012C258.298 106.002 261.205 103.533 263.085 101.513C265.08 99.3799 267.303 96.181 268.386 93.9361C269.411 91.8034 271.007 87.482 271.862 84.3953C272.717 81.3086 273.629 77.6607 273.857 76.2577C274.071 74.9405 274.636 72.4363 275.082 70.4631L275.168 70.0842C275.68 68.0639 276.364 65.0333 276.706 63.3496C277.048 61.6659 277.561 59.1405 277.789 57.7374C278.074 56.3344 278.815 52.7987 279.442 49.8803C280.126 46.962 280.639 43.0335 280.639 41.1814C280.639 39.2172 280.183 36.4111 279.499 34.4468C278.815 32.5948 277.618 30.1815 276.763 29.1152C275.965 28.0489 274.883 26.8142 274.37 26.4214C273.914 26.0285 272.375 25.0744 270.95 24.2326C269.525 23.3908 266.733 22.2683 264.681 21.7071C262.63 21.1459 258.127 20.4724 254.708 20.1357C251.231 19.8551 246.9 19.6306 245.019 19.6867C243.139 19.6867 239.149 19.9112 236.186 20.1357ZM388.351 21.202C390.061 20.8092 393.765 20.3041 396.615 20.0796C399.464 19.8551 405.221 19.799 409.438 19.9673C413.655 20.0796 418.214 20.4724 419.525 20.753C420.111 20.8733 420.823 21.0245 421.535 21.1757C422.484 21.3773 423.433 21.5788 424.085 21.7071C425.281 21.9316 427.903 23.054 429.955 24.1765C432.006 25.2428 434.514 27.1509 435.54 28.3295C436.565 29.5642 437.933 32.1458 438.56 34.1662C439.586 37.1968 439.757 38.6559 439.472 42.8651C439.301 45.6151 438.902 49.3191 438.617 51.0028C438.332 52.6864 437.363 56.1099 436.508 58.5792C435.711 61.0486 434.286 64.3037 433.488 65.819C432.633 67.3343 430.923 69.6914 429.67 71.0944C428.416 72.4414 426.079 74.2934 424.54 75.1913C422.945 76.0332 420.152 77.2679 418.271 77.8852C416.391 78.5025 413.028 79.2882 410.863 79.5688C408.64 79.9056 405.05 80.1862 402.884 80.1862C400.661 80.1862 396.33 79.7372 393.195 79.2321C390.061 78.7831 385.502 78.278 378.663 77.9413L378.15 79.7372C377.865 80.7474 377.181 83.4974 376.668 85.7984C376.098 88.1555 375.813 90.8494 375.984 91.9718C376.212 93.0381 376.953 94.4973 377.637 95.1708C378.378 95.9003 379.86 96.6861 380.942 97.0228C382.139 97.3595 391.201 97.584 403.568 97.584C403.815 101.177 401.744 109.237 391.486 112.737C386.129 112.961 379.119 113.074 375.813 112.905C372.166 112.737 368.347 112.176 366.125 111.502C364.073 110.885 361.281 109.819 359.856 109.201C358.431 108.528 356.265 106.956 354.955 105.722C353.302 104.094 352.276 102.41 351.364 99.5483C350.224 96.2371 350.053 94.8901 350.338 90.8494C350.509 88.2116 350.908 84.4515 351.25 82.4311C351.535 80.4107 352.219 77.2679 352.732 75.4158C353.188 73.5638 353.872 70.7016 354.157 69.0741C354.328 68.2883 354.527 67.222 354.727 66.1557C354.926 65.0894 355.126 64.0231 355.297 63.2374C355.582 61.6098 356.265 58.7476 356.778 56.8956C357.234 55.0436 357.861 52.4058 358.146 51.0028C358.431 49.5997 359.115 47.0742 359.742 45.3906C360.369 43.7069 361.338 41.2937 361.908 40.059C362.534 38.8243 363.788 36.6917 364.757 35.2886C365.726 33.8856 367.892 31.5285 369.601 30.0693C371.311 28.554 373.933 26.6458 375.528 25.7479C377.067 24.9061 379.917 23.6714 381.797 23.054C383.678 22.4367 386.642 21.5949 388.351 21.202ZM488.655 20.1918C485.692 20.4163 481.816 20.8653 480.106 21.202C478.397 21.5949 475.319 22.3806 473.268 23.054C471.216 23.7275 468.252 25.0183 466.714 25.9163C465.118 26.8142 462.724 28.554 461.357 29.8448C459.989 31.1356 457.88 33.7172 456.626 35.5692C455.429 37.4213 453.777 40.5641 453.036 42.5845C452.295 44.6049 451.212 47.8599 450.699 49.8803C450.186 51.9007 449.559 54.8191 449.331 56.3344C449.103 57.9058 448.477 60.6558 447.964 62.5078C447.451 64.3598 446.824 67.1659 446.539 68.6812C446.254 70.2526 445.342 74.6301 444.43 78.5025C443.404 83.0484 442.777 87.5943 442.664 91.4106C442.493 96.3493 442.663 97.8085 443.632 100.39C444.316 102.074 445.684 104.319 446.653 105.329C447.679 106.395 449.502 107.798 450.756 108.528C452.01 109.257 455.201 110.492 457.88 111.222C461.413 112.232 464.662 112.737 469.848 112.905C473.78 113.074 479.423 113.018 482.386 112.737C485.35 112.456 490.65 111.839 494.069 111.39C499.312 110.66 500.509 110.268 501.364 109.257C501.934 108.528 502.39 107.125 502.333 106.171C502.333 105.16 502.561 103.757 502.846 103.084C503.074 102.354 503.473 100.839 503.701 99.7166L504.043 97.584C479.366 97.584 475.775 97.4156 473.553 96.7422C471.957 96.2371 470.418 95.4514 470.019 94.8902C469.62 94.385 469.335 92.3085 469.335 90.2881C469.335 88.2678 469.563 85.5178 469.905 84.1147C470.247 82.7117 470.703 80.2984 470.988 78.7831C471.273 77.2117 471.9 74.3495 472.413 72.3291C472.926 70.3087 473.552 67.5588 473.837 66.1557C473.955 65.4351 474.147 64.4183 474.345 63.3716L474.345 63.3705C474.532 62.3797 474.725 61.3621 474.863 60.5435C475.205 58.8599 475.889 55.8293 476.402 53.8089C476.915 51.7885 477.542 49.0385 477.827 47.6355C478.112 46.2324 478.796 44.0998 479.366 42.8651C479.935 41.6304 480.904 39.9467 481.531 39.1049C482.158 38.3192 483.868 37.1407 485.35 36.4672C487.914 35.3447 489.054 35.2886 502.618 35.2886H517.151C517.948 33.3244 518.575 30.9672 519.088 28.8346C519.601 26.702 520 24.4571 520 23.8959C520 23.3908 519.658 22.7734 519.259 22.5489C518.917 22.3806 516.41 21.9877 513.731 21.7632C511.052 21.5387 506.208 20.9214 502.903 20.4724C499.597 19.9673 496.292 19.6306 495.494 19.6867C494.696 19.6867 491.619 19.9112 488.655 20.1918ZM48.058 19.6869C48.058 18.9573 48.4569 17.6665 48.9698 16.7686L49.8247 15.0849H59.6841C66.865 15.0849 70.1704 15.3094 72.0511 15.9268C73.4759 16.3757 75.2426 17.3859 76.0405 18.2278C77.1233 19.3502 77.5222 20.4165 77.6932 22.8298C77.8072 24.6257 77.5792 27.4318 77.2373 29.1154C77.1388 29.5309 77.0161 30.0591 76.8768 30.6588L76.8741 30.6702L76.8737 30.6722C76.4487 32.5015 75.8705 34.9905 75.3566 36.9725C74.7297 39.6102 74.1028 42.3602 73.9318 43.1459C73.8178 43.9316 73.1339 46.1765 72.4501 48.1969C71.6522 50.7224 70.6263 52.4622 69.2016 53.8091C67.7198 55.2121 66.0671 56.054 63.3315 56.7274C60.482 57.457 57.1765 57.7376 50.5656 57.7376C43.0998 57.7938 41.447 57.6254 40.8201 56.8958C40.4782 56.4468 40.3072 55.7172 40.5352 55.3244C40.7062 54.9876 41.1051 53.3601 41.3331 51.8448C41.561 50.3295 42.4159 46.0081 43.2708 42.3041C44.0686 38.6 44.9805 34.2786 45.2654 32.7634C45.5504 31.2481 46.2913 27.9369 46.9752 25.4675C47.6021 22.9981 48.115 20.4165 48.058 19.6869ZM229.118 38.6562C229.916 37.9266 231.796 36.8603 233.278 36.3552C235.045 35.7378 237.837 35.4011 241.485 35.345C245.873 35.345 247.583 35.5695 249.634 36.4113C251.059 37.0286 252.484 38.1511 252.826 38.8245C253.225 39.6664 253.339 42.0796 253.168 45.6714C252.997 48.7581 252.598 52.5744 252.256 54.0897C251.971 55.6611 251.287 58.5795 250.774 60.5437C250.261 62.5641 249.578 65.4825 249.293 66.9978C249.008 68.5692 248.153 72.7222 247.355 76.2579C246.5 79.8497 245.645 83.7221 245.417 84.9568C245.132 86.1915 244.448 88.3802 243.821 89.7272C243.195 91.1302 242.055 93.0384 241.257 93.9363C240.459 94.8904 238.578 96.0689 237.04 96.6302C235.045 97.3597 232.537 97.6404 228.092 97.6404C224.046 97.6404 221.253 97.3036 219.828 96.7985C218.688 96.3496 217.321 95.2832 216.865 94.4414C216.409 93.6557 216.01 91.8037 216.067 90.3445C216.067 88.9415 216.409 86.0231 216.751 83.8344L216.801 83.5675C217.196 81.4555 217.729 78.6066 217.948 77.0997C218.233 75.5844 218.859 72.7783 219.372 70.9263C219.885 69.0743 220.512 66.3243 220.797 64.7529C221.082 63.2376 221.994 58.9162 222.849 55.2121C223.704 51.5081 224.559 47.6357 224.786 46.5132C225.014 45.4469 225.755 43.5388 226.382 42.3041C227.066 41.0694 228.263 39.4419 229.118 38.6562ZM391.998 36.4113C390.687 36.9725 389.148 38.1511 388.521 39.049C387.951 39.947 387.039 41.7429 386.526 43.0337C385.957 44.3245 384.988 47.7479 384.304 50.6101C383.677 53.4724 382.879 57.1764 382.594 58.8601C382.309 60.5999 382.024 62.6202 381.967 63.3498L381.853 64.7529C403.111 64.7529 404.251 64.6968 406.074 63.6304C407.157 63.0131 408.639 61.4978 409.323 60.2631C410.007 59.0284 410.805 56.8958 411.146 55.4928C411.431 54.1458 412.229 50.4418 412.913 47.3551C413.882 42.8653 413.996 41.35 413.54 39.6664C413.122 38.282 412.286 37.2157 411.032 36.4674C409.437 35.4572 408.183 35.345 401.8 35.345C395.816 35.345 393.935 35.5695 391.998 36.4113Z" fill="#2A577A"/>
<path fill-rule="evenodd" clip-rule="evenodd" d="M391.997 36.4113C390.687 36.9725 389.148 38.1511 388.521 39.049C387.951 39.947 387.039 41.7429 386.526 43.0337C385.956 44.3245 384.988 47.7479 384.304 50.6101C383.677 53.4724 382.879 57.1764 382.594 58.8601C382.309 60.5998 382.024 62.6202 381.967 63.3498L381.853 64.7529C403.111 64.7529 404.25 64.6968 406.074 63.6304C407.157 63.0131 408.639 61.4978 409.323 60.2631C410.007 59.0284 410.804 56.8958 411.146 55.4927C411.431 54.1458 412.229 50.4418 412.913 47.3551C413.882 42.8653 413.996 41.35 413.54 39.6664C413.122 38.282 412.286 37.2157 411.032 36.4674C409.437 35.4572 408.183 35.345 401.8 35.345C395.816 35.345 393.935 35.5695 391.997 36.4113ZM396.615 20.0796C393.765 20.3041 390.061 20.8092 388.351 21.2021C386.641 21.5949 383.678 22.4368 381.797 23.0541C379.917 23.6715 377.067 24.9061 375.528 25.748C373.933 26.6459 371.311 28.5541 369.601 30.0694C367.892 31.5285 365.726 33.8856 364.757 35.2887C363.788 36.6917 362.534 38.8244 361.907 40.0591C361.338 41.2938 360.369 43.707 359.742 45.3907C359.115 47.0743 358.431 49.5998 358.146 51.0028C357.861 52.4059 357.234 55.0436 356.778 56.8957C356.265 58.7477 355.582 61.6099 355.297 63.2374C355.126 64.0231 354.926 65.0895 354.727 66.1558C354.527 67.2221 354.328 68.2884 354.157 69.0741C353.872 70.7017 353.188 73.5639 352.732 75.4159C352.219 77.2679 351.535 80.4108 351.25 82.4311C350.908 84.4515 350.509 88.2117 350.338 90.8494C350.053 94.8902 350.224 96.2371 351.364 99.5483C352.276 102.411 353.302 104.094 354.955 105.722C356.265 106.956 358.431 108.528 359.856 109.201C361.281 109.819 364.073 110.885 366.125 111.502C368.347 112.176 372.166 112.737 375.813 112.905C379.119 113.074 386.129 112.961 391.486 112.737C401.744 109.237 403.815 101.177 403.568 97.5841C391.201 97.5841 382.139 97.3596 380.942 97.0229C379.86 96.6861 378.378 95.9004 377.637 95.1708C376.953 94.4974 376.212 93.0382 375.984 91.9719C375.813 90.8494 376.098 88.1556 376.668 85.7985C377.181 83.4975 377.865 80.7475 378.15 79.7373L378.663 77.9414C385.502 78.2781 390.061 78.7832 393.195 79.2322C396.33 79.7373 400.661 80.1863 402.884 80.1863C405.05 80.1863 408.64 79.9057 410.863 79.5689C413.028 79.2883 416.391 78.5026 418.271 77.8853C420.152 77.2679 422.945 76.0332 424.54 75.1914C426.079 74.2935 428.416 72.4414 429.67 71.0945C430.923 69.6915 432.633 67.3343 433.488 65.819C434.286 64.3038 435.711 61.0487 436.508 58.5793C437.363 56.1099 438.332 52.6865 438.617 51.0028C438.902 49.3192 439.301 45.6151 439.472 42.8652C439.757 38.656 439.586 37.1968 438.56 34.1663C437.933 32.1459 436.565 29.5643 435.54 28.3296C434.514 27.151 432.006 25.2429 429.954 24.1765C427.903 23.0541 425.281 21.9317 424.084 21.7072C423.433 21.5789 422.484 21.3774 421.535 21.1758L421.535 21.1758L421.535 21.1758L421.534 21.1756C420.823 21.0245 420.111 20.8733 419.525 20.7531C418.214 20.4725 413.655 20.0796 409.438 19.9674C405.22 19.799 399.464 19.8552 396.615 20.0796Z" fill="#2A577A"/>
</svg>
