<svg width="44" height="44" viewBox="0 0 44 44" fill="none" xmlns="http://www.w3.org/2000/svg">
<path d="M36.9167 10.2963C36.918 9.39049 36.612 8.62091 35.9964 8.00531C35.3809 7.3898 34.6115 7.08325 33.7058 7.08325H22.8818C22.5583 7.08325 22.2752 7.19404 22.0506 7.41864C21.8259 7.64325 21.7152 7.92634 21.7152 8.24992C21.7152 8.57349 21.8259 8.85659 22.0506 9.0812C22.2752 9.3058 22.5583 9.41659 22.8818 9.41659L33.704 9.41659L33.7051 9.41658C33.9102 9.4157 34.1078 9.49756 34.3041 9.6949C34.5011 9.89294 34.5833 10.0914 34.5833 10.2959L34.5833 33.7039L34.5833 33.705L33.704 36.6666L33.7036 36.9166C34.6117 36.9179 35.382 36.6121 35.9966 35.9962C36.6108 35.3806 36.9167 34.6113 36.9167 33.7058V10.2963ZM36.9167 10.2963L36.6667 10.2959H36.9167V10.2963ZM19.4935 16.8627L19.4934 16.8614C19.4788 16.5391 19.604 16.2522 19.8381 16.0093C20.0694 15.7693 20.3449 15.6297 20.6596 15.6248C20.9769 15.6199 21.2578 15.7562 21.4966 15.995L26.2871 20.7855C26.6277 21.126 26.8058 21.5343 26.8058 21.9999C26.8058 22.4656 26.6277 22.8738 26.2871 23.2144L21.4966 28.0049C21.2747 28.2267 21.0031 28.3476 20.6924 28.3584C20.3657 28.3698 20.077 28.2368 19.8341 27.9939L19.8313 27.9911L19.8314 27.9911C19.5991 27.7516 19.4683 27.4717 19.4749 27.1574M19.4935 16.8627L19.7248 27.1626M19.4935 16.8627C19.5088 17.1664 19.6264 17.4314 19.8413 17.6464L19.4935 16.8627ZM19.4749 27.1574L19.7248 27.1626M19.4749 27.1574C19.4749 27.1578 19.4749 27.1582 19.4749 27.1587L19.7248 27.1626M19.4749 27.1574C19.4801 26.8482 19.6138 26.5754 19.8451 26.3441L23.0226 23.1666M19.7248 27.1626C19.7285 26.9291 19.8275 26.7153 20.0218 26.5209L23.3762 23.1666H23.0226M23.0226 23.1666L23.2726 22.9166M23.0226 23.1666H8.283C7.96029 23.1666 7.67792 23.0556 7.45355 22.8312C7.22895 22.6066 7.11816 22.3235 7.11816 21.9999C7.11816 21.6758 7.22995 21.3925 7.456 21.168L7.63216 21.3454L7.456 21.168C7.68111 20.9445 7.963 20.8333 8.28483 20.8333H23.0233L19.8414 17.6465L23.2726 22.9166M23.2726 22.9166H23.6262H23.2726Z" fill="black" stroke="black" stroke-width="0.5"/>
</svg>
