<svg width="44" height="44" viewBox="0 0 44 44" fill="none" xmlns="http://www.w3.org/2000/svg">
<path d="M21.8233 28.7347L22.0001 28.9114L22.1768 28.7347L28.665 22.2484L28.8406 22.0728L28.6663 21.896L27.3664 20.5779L27.1897 20.3986L27.0116 20.5766L23.1667 24.4215V9.16675V8.91675H22.9167H21.0834H20.8334V9.16675V24.4215L16.9867 20.5748L16.8084 20.3965L16.6317 20.5763L15.3337 21.8963L15.1598 22.0731L15.3352 22.2484L21.8233 28.7347ZM8.91675 31.8708L8.91675 31.8711C8.91806 32.7787 9.22436 33.5487 9.8388 34.1632C10.4533 34.7777 11.2228 35.0834 12.1294 35.0834H31.8708H31.8711C32.7787 35.0821 33.5487 34.7758 34.1632 34.1614C34.7777 33.5469 35.0834 32.7774 35.0834 31.8708V27.4286V27.1786H34.8334H33.0001H32.7501V27.4286L32.7501 31.8708L32.7501 31.8718C32.751 32.0769 32.6691 32.2745 32.4718 32.4708C32.2735 32.6681 32.0756 32.7501 31.8726 32.7501L12.1276 32.7501L12.1265 32.7501C11.9229 32.751 11.7259 32.6694 11.5293 32.4718C11.3323 32.2737 11.2501 32.0753 11.2501 31.8708V27.4286V27.1786H11.0001H9.16675H8.91675V27.4286L8.91675 31.8708Z" fill="black" stroke="black" stroke-width="0.5"/>
</svg>
