<svg width="44" height="44" viewBox="0 0 44 44" fill="none" xmlns="http://www.w3.org/2000/svg">
<path d="M38.3625 11.66C32.615 2.75002 20.845 0.110018 11.7425 5.63752C2.85999 11.165 -9.29832e-06 23.21 5.74749 32.0925L6.21499 32.8075L4.28999 40.0125L11.495 38.0875L12.21 38.555C15.3175 40.2325 18.7 41.195 22.055 41.195C25.6575 41.195 29.26 40.2325 32.3675 38.3075C41.25 32.5325 43.89 20.735 38.3625 11.605V11.66ZM33.33 30.195C32.3675 31.625 31.1575 32.5875 29.48 32.835C28.5175 32.835 27.3075 33.3025 22.5225 31.405C18.4525 29.48 15.07 26.345 12.6775 22.7425C11.2475 21.065 10.505 18.8925 10.285 16.72C10.285 14.795 11 13.1175 12.21 11.9075C12.6775 11.44 13.1725 11.1925 13.64 11.1925H14.85C15.3175 11.1925 15.8125 11.1925 16.06 12.155C16.5275 13.365 17.7375 16.2525 17.7375 16.5C17.985 16.7475 17.875 18.59 16.775 19.635C16.17 20.3225 16.06 20.35 16.3075 20.845C17.27 22.275 18.48 23.7325 19.6625 24.9425C21.0925 26.1525 22.55 27.115 24.2275 27.83C24.695 28.0775 25.19 28.0775 25.4375 27.5825C25.685 27.115 26.8675 25.905 27.3625 25.41C27.83 24.9425 28.0775 24.9425 28.5725 25.1625L32.4225 27.0875C32.89 27.335 33.385 27.555 33.6325 27.8025C33.88 28.5175 33.88 29.48 33.385 30.195H33.33Z" fill="#222222"/>
</svg>
