<svg width="44" height="44" viewBox="0 0 44 44" fill="none" xmlns="http://www.w3.org/2000/svg">
<path d="M6.83325 36.6666V37.1666H7.33325H8.79992C12.1815 37.1666 15.5632 36.3877 18.9411 34.8405C22.3191 33.2933 25.4261 31.0985 28.2623 28.2623L28.2639 28.2608C31.0753 25.4245 33.2632 22.3083 34.822 18.9122C36.3809 15.5159 37.1666 12.1438 37.1666 8.79992V7.33325V6.83325H36.6666H28.5303H28.1234L28.0407 7.23155L26.486 14.7152L26.4288 14.9909L26.6348 15.1828L31.2834 19.5123C30.5185 20.8136 29.73 22.0066 28.9182 23.0919L28.9179 23.0923C28.0354 24.2746 27.1182 25.3374 26.1669 26.2815L26.1667 26.2814L26.1572 26.2914C25.2006 27.2946 24.1189 28.2343 22.911 29.1099C21.7868 29.9249 20.5135 30.732 19.0899 31.5309L14.5681 26.843L14.378 26.6458L14.1094 26.6999L7.23444 28.0859L6.83325 28.1668V28.5761V36.6666Z" fill="black" stroke="black"/>
</svg>
