<svg width="44" height="44" viewBox="0 0 44 44" fill="none" xmlns="http://www.w3.org/2000/svg">
<path d="M23.8333 16.5001H32.0833L31.1666 20.1667H23.8333V36.6667H20.1666V20.1667H12.8333V16.5001H20.1666V13.0681C20.1666 9.79925 20.5076 8.61308 21.1456 7.41775C21.7712 6.23707 22.7369 5.27139 23.9176 4.64575C25.1129 4.00775 26.2991 3.66675 29.5679 3.66675C30.5261 3.66675 31.3646 3.75841 32.0833 3.94175V7.33341H29.5679C27.1406 7.33341 26.4018 7.47641 25.6464 7.87975C25.1042 8.16301 24.6621 8.60583 24.3796 9.14841C23.9763 9.90191 23.8333 10.6407 23.8333 13.0681V16.5001Z" fill="black"/>
</svg>
