<svg width="44" height="44" viewBox="0 0 44 44" fill="none" xmlns="http://www.w3.org/2000/svg">
<path d="M22.9167 22.7095V15.4422C22.9167 15.1818 22.8287 14.9643 22.6527 14.7895C22.4767 14.6147 22.2585 14.5267 21.9982 14.5255C21.7378 14.5243 21.5203 14.6123 21.3455 14.7895C21.1707 14.9667 21.0833 15.1843 21.0833 15.4422V22.8433C21.0833 23.0303 21.1176 23.2112 21.186 23.386C21.2544 23.562 21.3681 23.7301 21.527 23.8902L26.7208 29.0822C26.8993 29.2618 27.1174 29.3572 27.3753 29.3682C27.632 29.3804 27.8502 29.2857 28.0298 29.084C28.2009 28.9043 28.2865 28.6917 28.2865 28.446C28.2865 28.2003 28.2009 27.9919 28.0298 27.8208L22.9167 22.7095ZM22 11C22.2616 11 22.4797 10.912 22.6545 10.736C22.8293 10.56 22.9167 10.3424 22.9167 10.0833V8.25C22.9167 7.98967 22.8287 7.77211 22.6527 7.59733C22.4767 7.42256 22.2585 7.33456 21.9982 7.33333C21.7378 7.33211 21.5203 7.42011 21.3455 7.59733C21.1707 7.77456 21.0833 7.99211 21.0833 8.25V10.0833C21.0833 10.3437 21.1713 10.5612 21.3473 10.736C21.5233 10.9108 21.7415 10.9988 22.0018 11M33 22C33 22.2616 33.088 22.4797 33.264 22.6545C33.44 22.8293 33.6576 22.9167 33.9167 22.9167H35.75C36.0103 22.9167 36.2279 22.8287 36.4027 22.6527C36.5774 22.4767 36.6654 22.2585 36.6667 21.9982C36.6679 21.7378 36.5799 21.5203 36.4027 21.3455C36.2254 21.1707 36.0079 21.0833 35.75 21.0833H33.9167C33.6563 21.0833 33.4388 21.1713 33.264 21.3473C33.0892 21.5233 33.0012 21.7415 33 22.0018M22 33C21.7397 33 21.5215 33.088 21.3455 33.264C21.1695 33.44 21.0821 33.6576 21.0833 33.9167V35.75C21.0833 36.0103 21.1713 36.2279 21.3473 36.4027C21.5233 36.5774 21.7415 36.6654 22.0018 36.6667C22.2622 36.6679 22.4797 36.5799 22.6545 36.4027C22.8293 36.2254 22.9167 36.0079 22.9167 35.75V33.9167C22.9167 33.6563 22.8287 33.4388 22.6527 33.264C22.4767 33.0892 22.2585 33.0012 21.9982 33M11 22C11 21.7397 10.912 21.5215 10.736 21.3455C10.56 21.1695 10.3424 21.0821 10.0833 21.0833H8.25C7.98967 21.0833 7.77211 21.1713 7.59733 21.3473C7.42256 21.5233 7.33456 21.7415 7.33333 22.0018C7.33211 22.2622 7.42011 22.4797 7.59733 22.6545C7.77456 22.8293 7.99211 22.9167 8.25 22.9167H10.0833C10.3437 22.9167 10.5612 22.8287 10.736 22.6527C10.9108 22.4767 10.9988 22.2585 11 21.9982M22.0055 38.5C19.7248 38.5 17.5798 38.0673 15.5705 37.202C13.5624 36.3354 11.8152 35.1597 10.329 33.6747C8.84278 32.1897 7.66639 30.4443 6.79983 28.4387C5.93328 26.433 5.5 24.2886 5.5 22.0055C5.5 19.7224 5.93328 17.5774 6.79983 15.5705C7.66517 13.5624 8.83911 11.8152 10.3217 10.329C11.8042 8.84278 13.5502 7.66639 15.5595 6.79983C17.5688 5.93328 19.7138 5.5 21.9945 5.5C24.2752 5.5 26.4202 5.93328 28.4295 6.79983C30.4376 7.66517 32.1848 8.83972 33.671 10.3235C35.1572 11.8073 36.3336 13.5532 37.2002 15.5613C38.0667 17.5694 38.5 19.7138 38.5 21.9945C38.5 24.2752 38.0673 26.4202 37.202 28.4295C36.3367 30.4388 35.1609 32.186 33.6747 33.671C32.1884 35.156 30.4431 36.3324 28.4387 37.2002C26.4342 38.0679 24.2898 38.5012 22.0055 38.5Z" fill="black"/>
</svg>
