<svg width="44" height="44" viewBox="0 0 44 44" fill="none" xmlns="http://www.w3.org/2000/svg">
<path d="M22.0018 17.5084C23.683 15.7906 25.872 14.6667 28.4185 14.6667C31.0927 14.6667 33.6575 15.7291 35.5485 17.6201C37.4394 19.5111 38.5018 22.0758 38.5018 24.7501V38.5001H34.8351V24.7501C34.8351 23.0483 34.1591 21.4162 32.9557 20.2128C31.7524 19.0095 30.1203 18.3334 28.4185 18.3334C26.7167 18.3334 25.0845 19.0095 23.8812 20.2128C22.6778 21.4162 22.0018 23.0483 22.0018 24.7501V38.5001H18.3351V15.5834H22.0018V17.5084ZM9.16846 11.9167C8.43911 11.9167 7.73964 11.627 7.22391 11.1113C6.70819 10.5956 6.41846 9.89609 6.41846 9.16675C6.41846 8.4374 6.70819 7.73793 7.22391 7.2222C7.73964 6.70648 8.43911 6.41675 9.16846 6.41675C9.8978 6.41675 10.5973 6.70648 11.113 7.2222C11.6287 7.73793 11.9185 8.4374 11.9185 9.16675C11.9185 9.89609 11.6287 10.5956 11.113 11.1113C10.5973 11.627 9.8978 11.9167 9.16846 11.9167ZM7.33512 15.5834H11.0018V38.5001H7.33512V15.5834Z" fill="black"/>
</svg>
