<svg width="44" height="44" viewBox="0 0 44 44" fill="none" xmlns="http://www.w3.org/2000/svg">
<path d="M22.0074 21.505C22.8226 21.505 23.5193 21.2147 24.0974 20.6342C24.6755 20.0536 24.9639 19.3551 24.9627 18.5387C24.9615 17.7222 24.6706 17.0256 24.0901 16.4487C23.5095 15.8718 22.811 15.5833 21.9946 15.5833C21.1781 15.5833 20.4814 15.8742 19.9046 16.456C19.3277 17.0378 19.0392 17.7363 19.0392 18.5515C19.0392 19.3667 19.3295 20.0634 19.9101 20.6415C20.4906 21.2196 21.1897 21.5081 22.0074 21.5068M22.0001 38.5348C17.6917 34.7252 14.4467 31.1722 12.2651 27.8758C10.0822 24.5795 8.99072 21.5796 8.99072 18.876C8.99072 14.9979 10.2533 11.7993 12.7784 9.28033C15.3047 6.76011 18.3786 5.5 22.0001 5.5C25.6215 5.5 28.6954 6.76011 31.2217 9.28033C33.7468 11.7993 35.0094 14.9979 35.0094 18.876C35.0094 21.5796 33.9186 24.5795 31.7369 27.8758C29.554 31.1722 26.3084 34.7252 22.0001 38.5348Z" fill="#222222"/>
</svg>
