<svg width="44" height="44" viewBox="0 0 44 44" fill="none" xmlns="http://www.w3.org/2000/svg">
<path d="M4.58325 21.9999C4.58325 13.7903 4.58325 9.68359 7.13342 7.13342C9.68359 4.58325 13.7884 4.58325 21.9999 4.58325C30.2096 4.58325 34.3163 4.58325 36.8664 7.13342C39.4166 9.68359 39.4166 13.7884 39.4166 21.9999C39.4166 30.2096 39.4166 34.3163 36.8664 36.8664C34.3163 39.4166 30.2114 39.4166 21.9999 39.4166C13.7903 39.4166 9.68359 39.4166 7.13342 36.8664C4.58325 34.3163 4.58325 30.2114 4.58325 21.9999Z" stroke="black" stroke-width="2.75" stroke-linecap="round" stroke-linejoin="round"/>
<path d="M32.098 11.9165H32.0797M30.25 21.9998C30.25 24.1879 29.3808 26.2863 27.8336 27.8335C26.2865 29.3806 24.188 30.2498 22 30.2498C19.812 30.2498 17.7135 29.3806 16.1664 27.8335C14.6192 26.2863 13.75 24.1879 13.75 21.9998C13.75 19.8118 14.6192 17.7134 16.1664 16.1662C17.7135 14.619 19.812 13.7498 22 13.7498C24.188 13.7498 26.2865 14.619 27.8336 16.1662C29.3808 17.7134 30.25 19.8118 30.25 21.9998Z" stroke="black" stroke-width="2.75" stroke-linecap="round" stroke-linejoin="round"/>
</svg>
