<svg width="44" height="44" viewBox="0 0 44 44" fill="none" xmlns="http://www.w3.org/2000/svg">
<path d="M39.772 7.62076V7.64655L29.7689 40.6362C29.6174 41.1721 29.3058 41.6488 28.8757 42.0024C28.4456 42.356 27.9176 42.5696 27.3626 42.6145C27.2835 42.6214 27.2045 42.6248 27.1254 42.6248C26.6053 42.6264 26.0956 42.4792 25.6564 42.2006C25.2173 41.9219 24.867 41.5234 24.647 41.0522L18.3907 28.2131C18.3281 28.0844 18.3072 27.9394 18.331 27.7983C18.3547 27.6572 18.4218 27.527 18.5231 27.4259L28.4781 17.4709C28.725 17.211 28.8607 16.8648 28.8561 16.5063C28.8515 16.1477 28.7071 15.8051 28.4535 15.5516C28.1999 15.298 27.8574 15.1536 27.4988 15.149C27.1403 15.1444 26.7941 15.28 26.5342 15.527L16.574 25.482C16.4729 25.5832 16.3427 25.6504 16.2016 25.6741C16.0605 25.6979 15.9155 25.677 15.7868 25.6144L2.93573 19.3598C2.4332 19.1187 2.01579 18.7306 1.73882 18.247C1.46185 17.7633 1.33839 17.2069 1.3848 16.6514C1.43121 16.096 1.6453 15.5678 1.9987 15.1368C2.3521 14.7057 2.82813 14.3923 3.3637 14.238L36.3534 4.23483H36.3792C36.8489 4.10286 37.3452 4.09824 37.8173 4.22142C38.2894 4.34461 38.7202 4.59117 39.0655 4.93581C39.4109 5.28045 39.6583 5.71076 39.7825 6.18259C39.9066 6.65443 39.903 7.15079 39.772 7.62076Z" fill="#222222"/>
</svg>
