<svg width="63" height="30" viewBox="0 0 63 30" fill="none" xmlns="http://www.w3.org/2000/svg">
<g id="protec-logo-mono">
<path id="Subtract" fill-rule="evenodd" clip-rule="evenodd" d="M10.425 28.5711C9.5706 27.9908 8.23666 27.0847 9.68013 24.3269C12.9145 13.9753 30.8566 -4.94743 49.3317 1.20273C49.6173 1.30466 50.1575 1.89586 50.0342 3.44522C49.9712 4.23654 49.8424 4.57406 49.7121 4.91554C49.5648 5.30168 49.4155 5.69286 49.3572 6.75091C46.1076 4.74473 42.344 3.59811 38.3323 3.59811C26.0502 3.59811 16.0936 14.3454 16.0936 27.6029C16.0936 28.2109 16.1145 28.8136 16.1556 29.4102L10.7994 28.8431C10.6984 28.7568 10.5685 28.6685 10.425 28.5711Z" fill="white"/>
<path id="Vector 14" d="M40.5117 10.7596C33.5351 6.72312 29.2782 14.6534 28.0217 19.1384C27.9121 19.818 27.976 19.8293 28.0217 19.75C30.4341 17.7385 37.2302 18.4214 40.5117 17.4565C43.719 16.111 42.3187 11.8051 40.5117 10.7596Z" fill="white"/>
<path id="Vector 16" d="M35.6168 29.4208C29.3228 29.5567 27.8922 24.6994 27.9637 22.2538C32.3444 23.001 41.3236 21.0932 45.2656 20.0459C45.0017 20.6573 43.4843 29.251 35.6168 29.4208Z" fill="white"/>
</g>
</svg>
