<svg width="44" height="44" viewBox="0 0 44 44" fill="none" xmlns="http://www.w3.org/2000/svg">
<path d="M22.0001 3.6665C19.5925 3.6665 17.2085 4.14071 14.9842 5.06205C12.7599 5.98338 10.7389 7.33381 9.03646 9.03621C5.59829 12.4744 3.66675 17.1375 3.66675 21.9998C3.66675 26.8621 5.59829 31.5253 9.03646 34.9635C10.7389 36.6659 12.7599 38.0163 14.9842 38.9376C17.2085 39.859 19.5925 40.3332 22.0001 40.3332C26.8624 40.3332 31.5255 38.4016 34.9637 34.9635C38.4019 31.5253 40.3334 26.8621 40.3334 21.9998C40.3334 19.5923 39.8592 17.2083 38.9379 14.984C38.0165 12.7597 36.6661 10.7386 34.9637 9.03621C33.2613 7.33381 31.2402 5.98338 29.0159 5.06205C26.7916 4.14071 24.4076 3.6665 22.0001 3.6665ZM29.7001 29.6998L20.1667 23.8332V12.8332H22.9167V22.3665L31.1667 27.3165L29.7001 29.6998Z" fill="#222222"/>
</svg>
