<svg width="114" height="87" viewBox="0 0 114 87" fill="none" xmlns="http://www.w3.org/2000/svg">
<path fill-rule="evenodd" clip-rule="evenodd" d="M18.8644 51.785C17.3184 50.7332 14.9046 49.0911 17.5166 44.0925C23.3692 25.3302 55.8359 -8.96721 89.2671 2.17995C89.7838 2.3647 90.7614 3.43625 90.5382 6.24446C90.4242 7.67873 90.1911 8.29049 89.9554 8.90942C89.6888 9.60929 89.4187 10.3183 89.3132 12.236C83.433 8.59982 76.6227 6.52158 69.3633 6.52158C47.1386 6.52158 29.1218 26.0011 29.1218 50.0303C29.1218 51.1323 29.1597 52.2246 29.2342 53.3059L19.542 52.2781C19.3592 52.1217 19.1241 51.9617 18.8644 51.785Z" fill="#F7F9FF"/>
<path d="M73.307 19.5014C60.6827 12.1853 52.9795 26.5589 50.706 34.688C50.5076 35.9196 50.6233 35.9401 50.706 35.7964C55.0712 32.1507 67.3689 33.3885 73.307 31.6395C79.1107 29.2008 76.5767 21.3963 73.307 19.5014Z" fill="#F7F9FF"/>
<path fill-rule="evenodd" clip-rule="evenodd" d="M5.276 62.0726C5.23852 62.1346 5.0636 62.7675 4.88868 63.4873C4.71377 64.207 4.53885 64.9889 4.50137 65.2246C4.46388 65.4604 4.28897 66.3043 4.10155 67.0861C3.92664 67.8679 3.73922 68.7862 3.67675 69.1337C3.61428 69.4688 3.47685 70.1141 3.3644 70.5608C3.25195 71.0076 3.10202 71.6405 3.05205 71.988C3.0257 72.1293 2.99047 72.3103 2.95385 72.4984C2.90363 72.7565 2.85079 73.028 2.81466 73.2289C2.76632 73.4882 2.66562 73.9332 2.57623 74.3282C2.55009 74.4437 2.52492 74.555 2.5023 74.6561C2.38986 75.1028 2.26492 75.6613 2.22743 75.897C2.18995 76.1328 2.05252 76.7781 1.91508 77.3242C1.77764 77.8702 1.61522 78.6272 1.54026 78.9995C1.50043 79.2368 1.4403 79.5599 1.38575 79.8529L1.38574 79.853C1.35472 80.0196 1.32551 80.1766 1.30287 80.3025C1.25289 80.6376 1.11545 81.2581 1.00301 81.6676C0.89056 82.0771 0.74063 82.7224 0.67816 83.0947C0.620548 83.438 0.446047 84.2774 0.291855 85.0192L0.253359 85.2044C0.0909352 85.9862 -0.021512 86.6687 0.00347623 86.7184C0.0284645 86.7804 1.39033 86.8176 3.02706 86.8176C5.30099 86.8301 6.02565 86.7928 6.1256 86.6687C6.21306 86.5819 6.338 86.1972 6.42546 85.8249C6.51292 85.4526 6.62537 84.8941 6.68784 84.5839C6.71352 84.4245 6.7557 84.1995 6.79912 83.9679L6.79914 83.9678L6.79918 83.9676C6.84023 83.7486 6.88238 83.5238 6.91273 83.3429C6.98765 82.9709 7.13743 82.3014 7.23738 81.8546L7.23746 81.8542L7.23752 81.854L7.23752 81.854L7.23757 81.8538L7.23758 81.8537C7.35003 81.407 7.47497 80.8858 7.49996 80.6748C7.53744 80.4638 7.64989 79.9426 7.74984 79.4959C7.82626 79.1923 7.89691 78.8887 7.94218 78.6941C7.96352 78.6024 7.97922 78.5349 7.98723 78.5031C8.03721 78.3418 8.54947 78.3045 11.1358 78.2177C12.8475 78.168 14.5217 78.0688 14.859 78.0067C15.011 77.9851 15.196 77.9542 15.3823 77.923L15.3824 77.923H15.3824L15.3825 77.923L15.3825 77.923L15.3826 77.923L15.3826 77.923L15.3826 77.923C15.6249 77.8825 15.8694 77.8416 16.0459 77.8206C16.3583 77.7709 16.8581 77.6468 17.1704 77.5475C17.4828 77.4359 18.095 77.1753 18.5448 76.9767C19.1195 76.7161 19.6068 76.3438 20.2315 75.7233C20.7937 75.1525 21.281 74.5072 21.5933 73.9115C21.8682 73.4027 22.1306 72.7822 22.1806 72.5464C22.2055 72.4523 22.2503 72.2713 22.3071 72.042L22.3075 72.0405L22.3075 72.0404C22.393 71.6952 22.5054 71.2409 22.6179 70.809C22.7928 70.0893 22.9927 69.1958 23.0552 68.8235C23.1176 68.4512 23.2051 67.719 23.2426 67.2102C23.305 66.5153 23.2676 66.0933 23.1051 65.5349C22.9802 65.1254 22.7553 64.5793 22.5929 64.3187C22.4305 64.0705 21.9932 63.6362 21.6433 63.3632C21.281 63.0902 20.8937 62.8668 20.7937 62.8668C20.6938 62.8668 20.5563 62.8171 20.4814 62.7551C20.4064 62.693 19.9066 62.5069 19.3569 62.358C18.3948 62.0974 18.095 62.085 11.8479 62.0229C8.2746 61.9981 5.31348 62.0229 5.276 62.0726ZM69.271 62.5317C69.1585 62.6186 68.9586 63.1026 68.7962 63.6114C68.6463 64.1202 68.3964 64.7903 68.234 65.1005C68.0715 65.4108 67.7467 65.7831 67.5093 65.9444C67.2719 66.0933 66.8971 66.2174 66.6722 66.2174C66.4598 66.2174 66.1724 66.2671 66.0475 66.3291C65.91 66.3912 65.7601 66.7635 65.6102 67.4088C65.4853 67.9548 65.2479 69.0096 65.0854 69.7542C64.9231 70.4983 64.7358 71.4284 64.6608 71.8011L64.6606 71.8018C64.6213 71.9973 64.5819 72.2134 64.548 72.3997L64.5479 72.4001L64.5475 72.4019C64.517 72.5694 64.491 72.7125 64.4732 72.7946C64.4357 72.9683 64.3233 73.4647 64.2108 73.9115C64.0984 74.3582 63.961 75.0035 63.8985 75.3386C63.836 75.6861 63.6361 76.6292 63.4612 77.4483C63.2738 78.2673 63.0989 79.0988 63.0739 79.3097C63.0485 79.4527 62.9887 79.7267 62.9255 80.0159C62.8955 80.1535 62.8647 80.2946 62.8365 80.4266C62.7365 80.8361 62.6241 81.618 62.5741 82.164C62.5117 82.9086 62.5491 83.3553 62.7116 83.9634C62.824 84.4101 63.0364 84.9314 63.1863 85.1423C63.3363 85.3533 63.5737 85.6139 63.7111 85.738C63.8485 85.8497 64.1609 86.0606 64.3983 86.1847C64.6357 86.3088 65.2229 86.5322 65.7101 86.6687C66.2724 86.8301 67.1345 86.9417 68.1465 86.979C69.0086 87.0162 70.1331 87.0038 70.6453 86.9417C71.1576 86.8921 72.0572 86.7556 72.6444 86.6563C73.2316 86.557 73.8188 86.4205 73.9563 86.3461C74.1312 86.2716 74.2686 85.9614 74.4311 85.3781C74.5435 84.9065 74.6435 84.3109 74.6435 84.0627V83.5911C70.9202 83.5911 69.6583 83.5663 69.4584 83.5166C69.246 83.4794 68.9461 83.3429 68.7712 83.2188C68.4838 82.9954 68.4589 82.921 68.4589 81.891C68.4714 81.2953 68.5338 80.4887 68.6213 80.1164C68.6688 79.8805 68.7514 79.5252 68.8309 79.1828C68.877 78.9847 68.922 78.7909 68.9586 78.6272C69.0711 78.1804 69.2085 77.5351 69.271 77.2001C69.3334 76.865 69.4709 76.2197 69.5833 75.7729C69.6833 75.3262 69.8332 74.6312 69.9082 74.2217C69.9309 74.0977 69.957 73.9577 69.9838 73.8142L69.9844 73.8114C70.0459 73.482 70.1108 73.1344 70.1456 72.9187C70.208 72.6085 70.3455 72.0004 70.4579 71.5536C70.5245 71.289 70.5955 70.9982 70.6527 70.7639L70.6533 70.7614L70.655 70.7545L70.655 70.7544C70.6934 70.5973 70.7253 70.4664 70.7453 70.3871C70.7953 70.201 70.8952 69.99 70.9577 69.9404C71.0202 69.8907 71.6449 69.8163 72.332 69.779C73.0192 69.7418 74.506 69.6177 75.643 69.5184C76.78 69.4191 77.717 69.3323 77.7295 69.3199C77.7545 69.3199 77.792 69.1089 77.8295 68.8607C77.8669 68.6001 77.9919 67.9796 78.1168 67.4956C78.2293 66.9992 78.2793 66.5525 78.2293 66.5028C78.1668 66.4408 76.68 66.3787 74.9183 66.3415L71.7073 66.2795C71.7198 65.5101 71.8573 64.8399 71.9947 64.2939C72.1446 63.7479 72.2696 63.115 72.2696 62.904C72.2696 62.5814 72.2071 62.4821 71.9822 62.4324C71.8323 62.3952 71.1951 62.3704 70.5829 62.3704C69.8457 62.3704 69.3834 62.42 69.271 62.5317ZM30.4142 66.5153C31.5512 66.4036 33.1504 66.2671 33.975 66.2298C34.7997 66.1802 36.0366 66.1678 36.7237 66.1926C37.5109 66.2174 38.248 66.3291 38.7228 66.4904C39.1351 66.6269 39.6974 66.8751 39.9722 67.0241C40.2471 67.1854 40.6844 67.5329 40.9343 67.7935C41.2216 68.0913 41.484 68.5505 41.6464 69.0469C41.7964 69.4688 41.9088 70.1141 41.9088 70.4616C41.9088 70.8214 41.8214 71.4792 41.7214 71.9259C41.609 72.3727 41.3841 73.2414 41.2091 73.8494L41.1496 74.0429L41.1495 74.0433C40.9718 74.6209 40.7508 75.3392 40.4595 76.2073L36.0366 76.2693L36.1115 75.5496C36.149 75.1649 36.2365 74.6809 36.2989 74.4699C36.3614 74.259 36.4989 73.7502 36.5988 73.3158C36.6988 72.8939 36.7862 72.1989 36.7862 71.7646C36.7862 71.3427 36.7113 70.8587 36.6238 70.6849C36.5488 70.5236 36.274 70.2506 36.0366 70.1017C35.6243 69.8287 35.4868 69.8038 33.5627 69.8163C32.4508 69.8163 31.5387 69.8535 31.5387 69.9031L31.531 69.9421C31.5114 70.041 31.4672 70.2654 31.4137 70.4988C31.3513 70.7718 31.2138 71.3551 31.1014 71.8018C30.9889 72.2486 30.8515 72.8815 30.789 73.2289C30.776 73.2986 30.7614 73.378 30.7458 73.4631L30.7456 73.4638C30.686 73.7878 30.611 74.1949 30.5516 74.4699C30.4892 74.805 30.3392 75.4875 30.2268 75.9591C30.1143 76.4307 29.9769 77.1008 29.9144 77.4483C29.852 77.7833 29.7145 78.4286 29.6146 78.8754C29.5021 79.3221 29.3522 79.9799 29.2897 80.3273C29.2544 80.4968 29.2136 80.7185 29.1725 80.9419L29.1724 80.9423C29.1262 81.1933 29.0795 81.4466 29.0399 81.6304C28.9774 81.9902 28.8275 82.648 28.715 83.0947C28.6151 83.5415 28.4776 84.1744 28.4151 84.5218C28.3527 84.8569 28.2402 85.4526 28.1528 85.8249C28.0778 86.1972 27.9404 86.5819 27.8654 86.6687C27.7654 86.7928 27.0908 86.8301 25.0667 86.8176C23.0677 86.8176 22.4055 86.7804 22.3555 86.6687C22.318 86.5819 22.4305 85.8373 22.6179 85.0182C22.7928 84.1992 22.9802 83.2188 23.0427 82.8465C23.1051 82.4742 23.2551 81.8289 23.3675 81.4194C23.48 81.0099 23.6174 80.4018 23.6799 80.0543C23.7106 79.8484 23.7555 79.5862 23.7942 79.36L23.7943 79.3595L23.7943 79.3593L23.7943 79.3592L23.7943 79.3592L23.7944 79.3589L23.7944 79.3588C23.8186 79.2174 23.8404 79.0901 23.8548 78.9995C23.9048 78.7637 24.0547 78.0936 24.1921 77.5103C24.3421 76.9271 24.5045 76.1825 24.5545 75.835C24.6044 75.4999 24.7419 74.8546 24.8543 74.4079C24.9668 73.9611 25.1042 73.353 25.1667 73.0428C25.2108 72.7689 25.2841 72.3693 25.3351 72.0916L25.3541 71.988C25.4041 71.715 25.5665 70.9331 25.7289 70.2506C25.8913 69.5681 26.0538 68.8483 26.0912 68.6373C26.1287 68.4264 26.2037 68.0417 26.2662 67.7686C26.3286 67.4956 26.4161 67.1854 26.4661 67.0861C26.516 66.962 26.8284 66.8751 27.4531 66.8131L27.5507 66.8031C28.1016 66.747 29.3461 66.6202 30.4142 66.5153ZM51.7792 66.4656C51.1295 66.5028 50.2799 66.6145 49.9051 66.7014C49.5302 66.7883 48.8556 66.9744 48.4058 67.1233C47.956 67.2598 47.2813 67.5577 46.9065 67.7811C46.5316 67.992 45.8695 68.5381 45.4322 68.9972C44.9324 69.5184 44.5076 70.1389 44.2327 70.7098C43.9953 71.2062 43.683 72.0624 43.5331 72.6085C43.3831 73.1545 43.2082 73.7253 43.1457 73.8743C43.0833 74.0356 43.0333 74.3086 43.0333 74.4947C43.0333 74.6933 42.9208 75.289 42.7709 75.835C42.6335 76.381 42.4586 77.138 42.3961 77.5103C42.3402 77.788 42.2704 78.183 42.2126 78.5101L42.2125 78.5103C42.1928 78.6217 42.1746 78.7251 42.1587 78.8133C42.0962 79.1484 41.9588 79.8558 41.8463 80.3646C41.7339 80.8734 41.609 81.6924 41.5715 82.164C41.5215 82.8465 41.559 83.2064 41.7589 83.8393C41.9338 84.3853 42.1962 84.8445 42.571 85.2664C42.8709 85.6015 43.3581 86.011 43.6705 86.1475C43.9703 86.2964 44.6076 86.5446 45.0948 86.706C45.9194 86.979 46.1568 86.9914 49.2804 86.9914C52.2914 86.979 52.6788 86.9541 53.5534 86.7184C54.0906 86.5694 54.7653 86.3585 55.0527 86.2592C55.3525 86.1599 55.8898 85.8869 56.2646 85.6759C56.6269 85.4526 57.2641 84.9065 57.6764 84.4598C58.1137 83.9882 58.601 83.2809 58.8384 82.7845C59.0633 82.3129 59.4131 81.3573 59.6005 80.6748C59.7879 79.9923 59.9878 79.1856 60.0378 78.8754C60.0847 78.5842 60.2087 78.0306 60.3064 77.5943L60.3252 77.5103C60.4376 77.0636 60.5876 76.3934 60.6625 76.0211L60.6626 76.021C60.7375 75.6487 60.8499 75.0904 60.8999 74.7802C60.9624 74.4699 61.1248 73.6881 61.2622 73.0428C61.4122 72.3975 61.5246 71.5288 61.5246 71.1193C61.5246 70.6849 61.4247 70.0645 61.2747 69.6301C61.1248 69.2206 60.8624 68.687 60.675 68.4512C60.5001 68.2154 60.2627 67.9424 60.1503 67.8555C60.0503 67.7686 59.713 67.5577 59.4006 67.3715C59.0883 67.1854 58.476 66.9372 58.0263 66.8131C57.5765 66.689 56.5894 66.5401 55.8398 66.4656C55.0776 66.4036 54.1281 66.3539 53.7158 66.3663C53.3035 66.3663 52.4289 66.416 51.7792 66.4656ZM85.1385 66.7014C85.5134 66.6145 86.3255 66.5028 86.9502 66.4532C87.5749 66.4036 88.8368 66.3912 89.7614 66.4284C90.6859 66.4532 91.6855 66.5401 91.9728 66.6021C92.1012 66.6287 92.257 66.6621 92.4128 66.6954L92.4134 66.6956C92.6215 66.7401 92.8296 66.7847 92.9724 66.8131C93.2347 66.8627 93.8095 67.1109 94.2592 67.3591C94.709 67.5949 95.2588 68.0168 95.4837 68.2774C95.7086 68.5505 96.0084 69.1213 96.1459 69.5681C96.3708 70.2382 96.4082 70.5608 96.3458 71.4916C96.3083 72.0997 96.2208 72.9187 96.1584 73.291C96.0959 73.6633 95.8835 74.4203 95.6961 74.9663C95.5212 75.5123 95.2088 76.2321 95.0339 76.5672C94.8465 76.9022 94.4717 77.4234 94.1968 77.7337C93.9219 78.0315 93.4097 78.441 93.0723 78.6396C92.7225 78.8258 92.1103 79.0988 91.698 79.2353C91.2857 79.3718 90.5485 79.5455 90.0737 79.6076C89.5864 79.682 88.7993 79.7441 88.3245 79.7441C87.8373 79.7441 86.8877 79.6448 86.2005 79.5331C85.5134 79.4338 84.5138 79.3221 83.0145 79.2477L82.9021 79.6448C82.8396 79.8682 82.6897 80.4762 82.5772 80.9851C82.4523 81.5063 82.3898 82.1019 82.4273 82.3501C82.4773 82.5859 82.6397 82.9086 82.7896 83.0575C82.9521 83.2188 83.2769 83.3925 83.5143 83.467C83.7767 83.5415 85.7632 83.5911 88.4745 83.5911C88.5286 84.3855 88.0747 86.1679 85.8257 86.9417C84.6513 86.9914 83.1145 87.0162 82.3898 86.979C81.5902 86.9417 80.7531 86.8176 80.2658 86.6687C79.816 86.5322 79.2038 86.2964 78.8915 86.1599C78.5791 86.011 78.1043 85.6635 77.817 85.3905C77.4546 85.0306 77.2298 84.6583 77.0298 84.0254C76.78 83.2933 76.7425 82.9954 76.8049 82.1019C76.8424 81.5187 76.9299 80.6872 77.0049 80.2405C77.0673 79.7937 77.2172 79.0988 77.3297 78.6892C77.4296 78.2797 77.5796 77.6468 77.6421 77.2869C77.6795 77.1132 77.7232 76.8775 77.767 76.6418L77.767 76.6415C77.8107 76.4057 77.8545 76.17 77.8919 75.9963C77.9544 75.6364 78.1043 75.0035 78.2168 74.594C78.3167 74.1845 78.4542 73.6012 78.5166 73.291C78.5791 72.9807 78.729 72.4223 78.8665 72.05C79.0039 71.6777 79.2163 71.1441 79.3413 70.8711C79.4787 70.5981 79.7536 70.1265 79.966 69.8163C80.1784 69.506 80.6531 68.9848 81.028 68.6621C81.4028 68.3271 81.9775 67.9052 82.3274 67.7066C82.6647 67.5204 83.2894 67.2474 83.7017 67.1109C84.114 66.9744 84.7637 66.7883 85.1385 66.7014ZM107.128 66.478C106.479 66.5277 105.629 66.6269 105.254 66.7014C104.879 66.7883 104.205 66.962 103.755 67.1109C103.305 67.2598 102.655 67.5453 102.318 67.7438C101.968 67.9424 101.443 68.3271 101.144 68.6125C100.844 68.8979 100.381 69.4688 100.107 69.8783C99.8441 70.2878 99.4818 70.9828 99.3194 71.4295C99.157 71.8763 98.9196 72.596 98.8071 73.0428C98.6947 73.4895 98.5572 74.1349 98.5073 74.4699C98.4573 74.8174 98.3199 75.4255 98.2074 75.835C98.095 76.2445 97.9575 76.865 97.8951 77.2001C97.8326 77.5475 97.6327 78.5155 97.4328 79.3718C97.2079 80.377 97.0704 81.3822 97.0454 82.226C97.008 83.3181 97.0454 83.6407 97.2578 84.2116C97.4078 84.5839 97.7076 85.0803 97.92 85.3037C98.1449 85.5394 98.5447 85.8497 98.8196 86.011C99.0945 86.1723 99.7942 86.4454 100.381 86.6067C101.156 86.8301 101.868 86.9417 103.005 86.979C103.867 87.0162 105.104 87.0038 105.754 86.9417C106.404 86.8797 107.566 86.7432 108.315 86.6439C109.465 86.4826 109.727 86.3957 109.914 86.1723C110.039 86.011 110.139 85.7008 110.127 85.4898C110.127 85.2664 110.177 84.9562 110.239 84.8073C110.289 84.6459 110.377 84.3109 110.427 84.0627L110.502 83.5911C105.092 83.5911 104.305 83.5539 103.817 83.405C103.467 83.2933 103.13 83.1195 103.043 82.9954C102.955 82.8837 102.893 82.4246 102.893 81.9778C102.893 81.5311 102.943 80.923 103.018 80.6128C103.093 80.3025 103.193 79.7689 103.255 79.4338C103.318 79.0864 103.455 78.4535 103.567 78.0067C103.68 77.56 103.817 76.9519 103.88 76.6416C103.905 76.4822 103.948 76.2571 103.991 76.0255C104.032 75.8065 104.074 75.5816 104.105 75.4007C104.18 75.0284 104.33 74.3582 104.442 73.9115C104.554 73.4647 104.692 72.8567 104.754 72.5464C104.817 72.2362 104.967 71.7646 105.092 71.4916C105.217 71.2186 105.429 70.8463 105.566 70.6601C105.704 70.4864 106.079 70.2258 106.404 70.0769C106.966 69.8287 107.216 69.8163 110.189 69.8163H113.375C113.55 69.3819 113.688 68.8607 113.8 68.3891C113.913 67.9176 114 67.4212 114 67.2971C114 67.1854 113.925 67.0489 113.838 66.9992C113.763 66.962 113.213 66.8751 112.626 66.8255C112.038 66.7759 110.976 66.6394 110.252 66.5401C109.527 66.4284 108.802 66.3539 108.628 66.3663C108.453 66.3663 107.778 66.416 107.128 66.478ZM10.536 66.3663C10.536 66.205 10.6235 65.9196 10.7359 65.721L10.9234 65.3487H13.0848C14.6591 65.3487 15.3838 65.3984 15.7961 65.5349C16.1084 65.6342 16.4957 65.8575 16.6707 66.0437C16.908 66.2919 16.9955 66.5277 17.033 67.0613C17.058 67.4584 17.008 68.0789 16.933 68.4512C16.9113 68.5436 16.8842 68.6613 16.8534 68.795L16.8533 68.7956C16.7601 69.2001 16.6334 69.7504 16.5207 70.1885C16.3833 70.7718 16.2459 71.3799 16.2084 71.5536C16.1834 71.7274 16.0335 72.2238 15.8835 72.6705C15.7086 73.2289 15.4837 73.6136 15.1714 73.9115C14.8465 74.2217 14.4842 74.4079 13.8845 74.5568C13.2598 74.7181 12.5351 74.7802 11.0858 74.7802C9.44905 74.7926 9.08672 74.7553 8.94928 74.594C8.87432 74.4947 8.83683 74.3334 8.88681 74.2465C8.92429 74.1721 9.01175 73.8122 9.06173 73.4771C9.1117 73.1421 9.29912 72.1865 9.48653 71.3675C9.66145 70.5484 9.86135 69.5929 9.92382 69.2578C9.98629 68.9228 10.1487 68.1906 10.2986 67.6445C10.4361 67.0985 10.5485 66.5277 10.536 66.3663ZM50.2299 70.5608C50.4048 70.3995 50.8171 70.1637 51.142 70.052C51.5293 69.9155 52.1415 69.8411 52.9411 69.8287C53.9032 69.8287 54.278 69.8783 54.7278 70.0645C55.0402 70.201 55.3525 70.4492 55.4275 70.5981C55.5149 70.7842 55.5399 71.3178 55.5024 72.1121C55.465 72.7946 55.3775 73.6385 55.3025 73.9735C55.2401 74.321 55.0901 74.9663 54.9777 75.4007C54.8652 75.8474 54.7153 76.4927 54.6528 76.8278C54.5904 77.1753 54.403 78.0936 54.228 78.8754C54.0406 79.6696 53.8532 80.5259 53.8032 80.7989C53.7408 81.0719 53.5908 81.5559 53.4534 81.8537C53.316 82.164 53.0661 82.5859 52.8912 82.7845C52.7162 82.9954 52.3039 83.256 51.9666 83.3801C51.5293 83.5415 50.9796 83.6035 50.005 83.6035C49.1179 83.6035 48.5057 83.5291 48.1934 83.4174C47.9435 83.3181 47.6436 83.0823 47.5437 82.8962C47.4437 82.7224 47.3563 82.3129 47.3688 81.9902C47.3688 81.68 47.4437 81.0347 47.5187 80.5507L47.5296 80.4917L47.5299 80.4904L47.5299 80.4902L47.5299 80.4901L47.5302 80.4888C47.6167 80.0221 47.7332 79.3941 47.7811 79.0615C47.8435 78.7265 47.981 78.106 48.0934 77.6965C48.2059 77.2869 48.3433 76.6789 48.4058 76.3314C48.4682 75.9963 48.6681 75.0408 48.8556 74.2217C49.043 73.4027 49.2304 72.5464 49.2804 72.2982C49.3303 72.0624 49.4928 71.6405 49.6302 71.3675C49.7801 71.0945 50.0425 70.7346 50.2299 70.5608ZM85.9382 70.0645C85.6508 70.1885 85.3135 70.4492 85.176 70.6477C85.0511 70.8463 84.8512 71.2434 84.7387 71.5288C84.6138 71.8142 84.4014 72.5712 84.2514 73.2041C84.114 73.837 83.9391 74.6561 83.8766 75.0284C83.8142 75.4131 83.7517 75.8598 83.7392 76.0211L83.7142 76.3314C88.3745 76.3314 88.6244 76.319 89.0242 76.0832C89.2616 75.9467 89.5864 75.6116 89.7364 75.3386C89.8863 75.0656 90.0612 74.594 90.1362 74.2838C90.1987 73.9859 90.3736 73.1669 90.5235 72.4844C90.7359 71.4916 90.7609 71.1565 90.6609 70.7842C90.5693 70.4781 90.3861 70.2423 90.1112 70.0769C89.7614 69.8535 89.4865 69.8287 88.0872 69.8287C86.7753 69.8287 86.363 69.8783 85.9382 70.0645Z" fill="#F7F9FF"/>
<path fill-rule="evenodd" clip-rule="evenodd" d="M85.9382 70.0645C85.6509 70.1885 85.3135 70.4492 85.1761 70.6477C85.0511 70.8463 84.8512 71.2434 84.7388 71.5288C84.6138 71.8142 84.4015 72.5712 84.2515 73.2041C84.1141 73.837 83.9392 74.6561 83.8767 75.0284C83.8142 75.4131 83.7518 75.8598 83.7393 76.0211L83.7143 76.3314C88.3746 76.3314 88.6245 76.319 89.0243 76.0832C89.2617 75.9467 89.5865 75.6116 89.7364 75.3386C89.8864 75.0656 90.0613 74.594 90.1363 74.2838C90.1987 73.9859 90.3736 73.1669 90.5236 72.4844C90.736 71.4916 90.761 71.1565 90.661 70.7842C90.5694 70.4781 90.3861 70.2423 90.1113 70.0769C89.7614 69.8535 89.4866 69.8287 88.0872 69.8287C86.7753 69.8287 86.363 69.8783 85.9382 70.0645ZM86.9502 66.4532C86.3255 66.5028 85.5134 66.6145 85.1386 66.7014C84.7637 66.7883 84.114 66.9744 83.7017 67.1109C83.2894 67.2474 82.6647 67.5204 82.3274 67.7066C81.9775 67.9051 81.4028 68.3271 81.028 68.6621C80.6532 68.9848 80.1784 69.506 79.966 69.8163C79.7536 70.1265 79.4787 70.5981 79.3413 70.8711C79.2163 71.1441 79.0039 71.6777 78.8665 72.05C78.7291 72.4223 78.5791 72.9807 78.5167 73.291C78.4542 73.6012 78.3168 74.1845 78.2168 74.594C78.1044 75.0035 77.9544 75.6364 77.892 75.9963C77.8545 76.1701 77.8107 76.4059 77.767 76.6417L77.767 76.6418L77.767 76.6418L77.767 76.6418C77.7233 76.8775 77.6795 77.1132 77.6421 77.2869C77.5796 77.6468 77.4297 78.2797 77.3297 78.6892C77.2173 79.0988 77.0673 79.7937 77.0049 80.2405C76.9299 80.6872 76.8425 81.5187 76.805 82.1019C76.7425 82.9954 76.78 83.2933 77.0299 84.0254C77.2298 84.6583 77.4547 85.0306 77.817 85.3905C78.1044 85.6635 78.5791 86.011 78.8915 86.1599C79.2038 86.2964 79.8161 86.5322 80.2658 86.6687C80.7531 86.8176 81.5902 86.9417 82.3898 86.979C83.1145 87.0162 84.6513 86.9914 85.8257 86.9417C88.0747 86.1679 88.5286 84.3855 88.4745 83.5911C85.7633 83.5911 83.7767 83.5415 83.5143 83.467C83.2769 83.3925 82.9521 83.2188 82.7897 83.0575C82.6397 82.9086 82.4773 82.5859 82.4273 82.3501C82.3898 82.1019 82.4523 81.5063 82.5773 80.985C82.6897 80.4762 82.8396 79.8682 82.9021 79.6448L83.0145 79.2477C84.5138 79.3221 85.5134 79.4338 86.2006 79.5331C86.8877 79.6448 87.8373 79.7441 88.3246 79.7441C88.7993 79.7441 89.5865 79.682 90.0737 79.6076C90.5485 79.5455 91.2857 79.3718 91.698 79.2353C92.1103 79.0988 92.7225 78.8257 93.0723 78.6396C93.4097 78.441 93.9219 78.0315 94.1968 77.7337C94.4717 77.4234 94.8465 76.9022 95.0339 76.5672C95.2088 76.2321 95.5212 75.5123 95.6961 74.9663C95.8835 74.4203 96.0959 73.6633 96.1584 73.291C96.2209 72.9187 96.3083 72.0997 96.3458 71.4916C96.4083 70.5608 96.3708 70.2382 96.1459 69.5681C96.0085 69.1213 95.7086 68.5505 95.4837 68.2774C95.2588 68.0168 94.7091 67.5949 94.2593 67.3591C93.8095 67.1109 93.2348 66.8627 92.9724 66.8131C92.8296 66.7847 92.6215 66.7401 92.4134 66.6956L92.4134 66.6956C92.2573 66.6621 92.1013 66.6287 91.9728 66.6021C91.6855 66.5401 90.686 66.4532 89.7614 66.4284C88.8368 66.3912 87.5749 66.4036 86.9502 66.4532Z" fill="#F7F9FF"/>
<path d="M64.4494 53.325C53.0603 53.5713 50.4716 44.7674 50.601 40.3347C58.528 41.6892 74.776 38.2313 81.9092 36.333C81.4316 37.4412 78.6858 53.0172 64.4494 53.325Z" fill="#F7F9FF"/>
</svg>
