<svg width="181" height="30" viewBox="0 0 181 30" fill="none" xmlns="http://www.w3.org/2000/svg">
<path fill-rule="evenodd" clip-rule="evenodd" d="M68.4448 2.06117C68.4061 2.1251 68.2256 2.77717 68.0451 3.51875C67.8646 4.26032 67.684 5.06582 67.6454 5.30874C67.6067 5.55167 67.4262 6.4211 67.2328 7.2266C67.0522 8.0321 66.8588 8.97824 66.7944 9.33624C66.7299 9.68146 66.5881 10.3463 66.472 10.8066C66.356 11.2669 66.2013 11.919 66.1497 12.277C66.1225 12.4225 66.0861 12.609 66.0483 12.8029C65.9965 13.0687 65.942 13.3485 65.9047 13.5555C65.8548 13.8226 65.7509 14.2811 65.6586 14.6881L65.6586 14.6881L65.6584 14.6894L65.6582 14.6899C65.6314 14.8083 65.6056 14.9223 65.5823 15.0259C65.4663 15.4862 65.3374 16.0615 65.2987 16.3045C65.26 16.5474 65.1182 17.2122 64.9763 17.7748C64.8345 18.3374 64.6669 19.1173 64.5895 19.5009C64.5484 19.7454 64.4864 20.0783 64.4301 20.3803L64.4301 20.3803L64.43 20.3805L64.43 20.3808C64.398 20.5523 64.3679 20.7138 64.3445 20.8434C64.293 21.1886 64.1511 21.8279 64.0351 22.2498C63.919 22.6717 63.7643 23.3366 63.6999 23.7202C63.6404 24.0739 63.4603 24.9388 63.3012 25.703L63.2615 25.8937C63.0938 26.6992 62.9778 27.4025 63.0036 27.4536C63.0294 27.5175 64.4348 27.5559 66.1239 27.5559C68.4706 27.5687 69.2184 27.5303 69.3216 27.4025C69.4118 27.313 69.5407 26.9166 69.631 26.533C69.7213 26.1495 69.8373 25.5741 69.9018 25.2545C69.9283 25.0902 69.9718 24.8584 70.0166 24.6198C70.059 24.3941 70.1025 24.1623 70.1339 23.9759C70.2112 23.5923 70.366 22.9019 70.4691 22.4416C70.5851 21.9813 70.7141 21.4443 70.7399 21.227C70.7786 21.0096 70.8946 20.4726 70.9977 20.0123C71.0766 19.6995 71.1495 19.3867 71.1962 19.1863C71.2183 19.0918 71.2345 19.0222 71.2427 18.9895C71.2943 18.8232 71.823 18.7849 74.492 18.6954C76.2584 18.6442 77.9862 18.542 78.3343 18.478C78.4912 18.4558 78.6822 18.4239 78.8745 18.3918L78.8746 18.3918C79.1247 18.35 79.377 18.3079 79.5592 18.2862C79.8816 18.2351 80.3973 18.1072 80.7197 18.005C81.042 17.8899 81.6738 17.6214 82.138 17.4168C82.7311 17.1483 83.234 16.7647 83.8787 16.1255C84.4589 15.5373 84.9617 14.8725 85.2841 14.2587C85.5677 13.7345 85.8385 13.0952 85.8901 12.8523C85.9159 12.7551 85.9623 12.568 86.0211 12.3309L86.0212 12.3304L86.0213 12.3302L86.0214 12.3297L86.0214 12.3295L86.0215 12.3292L86.0216 12.3287C86.1098 11.9733 86.2256 11.5063 86.3414 11.0623C86.5219 10.3207 86.7282 9.40017 86.7927 9.0166C86.8571 8.63303 86.9474 7.87867 86.9861 7.35446C87.0505 6.63846 87.0119 6.20374 86.8442 5.62839C86.7153 5.20646 86.4832 4.64389 86.3156 4.37539C86.148 4.11967 85.6967 3.67217 85.3357 3.39089C84.9617 3.1096 84.562 2.87946 84.4589 2.87946C84.3557 2.87946 84.2139 2.82832 84.1365 2.76439C84.0592 2.70046 83.5434 2.50867 82.9761 2.35525C81.9833 2.08675 81.6738 2.07396 75.2269 2.01003C71.5393 1.98446 68.4835 2.01003 68.4448 2.06117ZM134.487 2.53425C134.371 2.62375 134.164 3.12239 133.997 3.6466C133.842 4.17082 133.584 4.86125 133.417 5.18089C133.249 5.50053 132.914 5.8841 132.669 6.05032C132.424 6.20374 132.037 6.3316 131.805 6.3316C131.586 6.3316 131.289 6.38274 131.16 6.44667C131.018 6.5106 130.864 6.89417 130.709 7.55903C130.58 8.1216 130.335 9.20839 130.167 9.97553C130 10.7427 129.806 11.7016 129.729 12.0852C129.688 12.2866 129.648 12.5092 129.613 12.7011C129.581 12.8746 129.554 13.023 129.536 13.108C129.497 13.287 129.381 13.7985 129.265 14.2587C129.149 14.719 129.007 15.3839 128.943 15.7291C128.878 16.0871 128.672 17.0588 128.491 17.9027C128.298 18.7465 128.117 19.6032 128.092 19.8205C128.065 19.9678 128.004 20.25 127.938 20.5479C127.907 20.6898 127.876 20.8352 127.847 20.9712C127.743 21.3932 127.627 22.1987 127.576 22.7612C127.511 23.5284 127.55 23.9887 127.718 24.6152C127.834 25.0755 128.053 25.6125 128.208 25.8298C128.362 26.0472 128.607 26.3157 128.749 26.4435C128.891 26.5586 129.213 26.776 129.458 26.9038C129.703 27.0317 130.309 27.2618 130.812 27.4025C131.392 27.5687 132.282 27.6837 133.326 27.7221C134.216 27.7605 135.377 27.7477 135.905 27.6837C136.434 27.6326 137.362 27.492 137.968 27.3897C138.574 27.2874 139.18 27.1467 139.322 27.07C139.503 26.9933 139.644 26.6737 139.812 26.0727C139.928 25.5869 140.031 24.9732 140.031 24.7175V24.2316C136.189 24.2316 134.887 24.206 134.68 24.1549C134.461 24.1165 134.152 23.9759 133.971 23.848C133.675 23.6179 133.649 23.5412 133.649 22.48C133.662 21.8662 133.726 21.0352 133.816 20.6516C133.865 20.4086 133.951 20.0426 134.033 19.6899L134.033 19.6884L134.035 19.6796L134.035 19.6793C134.082 19.4789 134.127 19.2831 134.164 19.1173C134.281 18.657 134.422 17.9922 134.487 17.647C134.551 17.3017 134.693 16.6369 134.809 16.1766C134.912 15.7163 135.067 15.0003 135.144 14.5784C135.168 14.45 135.195 14.3051 135.223 14.1565C135.286 13.8168 135.354 13.4583 135.389 13.2359C135.454 12.9162 135.596 12.2897 135.712 11.8295C135.781 11.5533 135.856 11.2495 135.915 11.0065L135.916 11.0026C135.955 10.8423 135.988 10.7088 136.008 10.6276C136.06 10.4358 136.163 10.2185 136.228 10.1673C136.292 10.1162 136.937 10.0395 137.646 10.0011C138.355 9.96274 139.889 9.83489 141.063 9.7326C142.236 9.63031 143.203 9.54081 143.216 9.52803C143.242 9.52803 143.28 9.31067 143.319 9.05496C143.358 8.78646 143.487 8.14717 143.616 7.64853C143.732 7.1371 143.783 6.67682 143.732 6.62567C143.667 6.56174 142.133 6.49782 140.315 6.45946L137.001 6.39553C137.014 5.60282 137.156 4.91239 137.298 4.34982C137.452 3.78725 137.581 3.13517 137.581 2.91782C137.581 2.58539 137.517 2.4831 137.285 2.43196C137.13 2.3936 136.472 2.36803 135.841 2.36803C135.08 2.36803 134.603 2.41917 134.487 2.53425ZM94.3871 6.63846C95.5604 6.52339 97.2109 6.38274 98.0618 6.34439C98.9128 6.29324 100.189 6.28046 100.898 6.30603C101.711 6.3316 102.472 6.44667 102.961 6.61289C103.387 6.75353 103.967 7.00924 104.251 7.16267C104.535 7.32889 104.986 7.68689 105.244 7.95539C105.54 8.26224 105.811 8.73531 105.979 9.24674C106.133 9.68146 106.249 10.3463 106.249 10.7043C106.249 11.0751 106.159 11.7527 106.056 12.213C105.94 12.6733 105.708 13.5683 105.527 14.1948L105.466 14.3943C105.282 14.9895 105.054 15.7296 104.754 16.6241L100.189 16.688L100.267 15.9465C100.305 15.5501 100.396 15.0515 100.46 14.8341C100.525 14.6167 100.666 14.0925 100.77 13.645C100.873 13.2103 100.963 12.4943 100.963 12.0468C100.963 11.6121 100.886 11.1135 100.795 10.9345C100.718 10.7682 100.434 10.487 100.189 10.3335C99.7638 10.0522 99.622 10.0267 97.6364 10.0395C96.4888 10.0395 95.5476 10.0778 95.5476 10.129L95.5396 10.1691L95.5395 10.1693L95.5395 10.1695C95.5193 10.2716 95.4737 10.5025 95.4186 10.7427C95.3541 11.024 95.2123 11.6249 95.0963 12.0852C94.9802 12.5455 94.8384 13.1975 94.7739 13.5555C94.7605 13.6274 94.7454 13.7092 94.7292 13.797L94.7291 13.7976C94.6675 14.1314 94.5902 14.5508 94.5289 14.8341C94.4645 15.1793 94.3097 15.8825 94.1937 16.3684C94.0777 16.8542 93.9358 17.5447 93.8714 17.9027C93.8069 18.2479 93.6651 18.9127 93.5619 19.373C93.4459 19.8333 93.2911 20.511 93.2267 20.869C93.1902 21.0435 93.1481 21.272 93.1056 21.5022C93.0579 21.761 93.0097 22.022 92.9688 22.2115C92.9043 22.5822 92.7496 23.2599 92.6336 23.7202C92.5304 24.1805 92.3886 24.8325 92.3241 25.1905C92.2596 25.5357 92.1436 26.1495 92.0533 26.533C91.976 26.9166 91.8341 27.313 91.7568 27.4025C91.6536 27.5303 90.9574 27.5687 88.8686 27.5559C86.8056 27.5559 86.1222 27.5175 86.0706 27.4025C86.0319 27.313 86.148 26.5458 86.3414 25.702C86.5219 24.8581 86.7153 23.848 86.7798 23.4645C86.8442 23.0809 86.999 22.416 87.115 21.9941C87.231 21.5722 87.3729 20.9457 87.4373 20.5877C87.4691 20.3752 87.5155 20.1046 87.5555 19.8713C87.5805 19.7255 87.603 19.5943 87.6179 19.5009C87.6694 19.258 87.8242 18.5675 87.966 17.9666C88.1207 17.3657 88.2883 16.5985 88.3399 16.2405C88.3915 15.8953 88.5333 15.2305 88.6494 14.7702C88.7654 14.3099 88.9072 13.6834 88.9717 13.3637C89.0172 13.0816 89.0929 12.6699 89.1455 12.3837L89.1651 12.277C89.2167 11.9957 89.3843 11.1902 89.5519 10.487C89.7196 9.78374 89.8872 9.04217 89.9259 8.82481C89.9645 8.60746 90.0419 8.2111 90.1064 7.92982C90.1708 7.64853 90.2611 7.32889 90.3127 7.2266C90.3642 7.09874 90.6866 7.00924 91.3313 6.94532L91.4325 6.93501L91.4327 6.935C92.0014 6.87713 93.2852 6.74652 94.3871 6.63846ZM116.436 6.58732C115.765 6.62567 114.888 6.74074 114.501 6.83024C114.115 6.91974 113.418 7.11153 112.954 7.26496C112.49 7.4056 111.794 7.71246 111.407 7.9426C111.02 8.15996 110.337 8.72253 109.885 9.1956C109.37 9.7326 108.931 10.3719 108.648 10.96C108.403 11.4715 108.08 12.3537 107.926 12.9162C107.771 13.4788 107.59 14.067 107.526 14.2204C107.461 14.3866 107.41 14.6679 107.41 14.8597C107.41 15.0642 107.294 15.678 107.139 16.2405C106.997 16.8031 106.817 17.583 106.752 17.9666C106.695 18.2526 106.623 18.6595 106.563 18.9964L106.563 18.9968L106.562 18.9996C106.542 19.1133 106.524 19.2189 106.507 19.3091C106.443 19.6543 106.301 20.3831 106.185 20.9073C106.069 21.4315 105.94 22.2754 105.901 22.7612C105.85 23.4645 105.888 23.8352 106.095 24.4873C106.275 25.0499 106.546 25.523 106.933 25.9577C107.242 26.3029 107.745 26.7248 108.067 26.8654C108.377 27.0189 109.034 27.2746 109.537 27.4408C110.388 27.7221 110.633 27.7349 113.857 27.7349C116.964 27.7221 117.364 27.6965 118.266 27.4536C118.821 27.3002 119.517 27.0828 119.814 26.9805C120.123 26.8782 120.678 26.597 121.064 26.3796C121.438 26.1495 122.096 25.5869 122.521 25.1266C122.973 24.6407 123.476 23.912 123.721 23.4005C123.953 22.9147 124.314 21.9302 124.507 21.227C124.7 20.5237 124.907 19.6927 124.958 19.373C125.007 19.073 125.135 18.5028 125.235 18.0533L125.255 17.9666C125.371 17.5063 125.526 16.8159 125.603 16.4323C125.68 16.0487 125.796 15.4734 125.848 15.1537C125.912 14.8341 126.08 14.0286 126.222 13.3637C126.377 12.6989 126.493 11.8039 126.493 11.382C126.493 10.9345 126.39 10.2952 126.235 9.84767C126.08 9.42574 125.809 8.87596 125.616 8.63303C125.435 8.3901 125.19 8.10882 125.074 8.01932C124.971 7.92982 124.623 7.71246 124.301 7.52067C123.978 7.32889 123.347 7.07317 122.882 6.94532C122.418 6.81746 121.4 6.66403 120.626 6.58732C119.839 6.52339 118.86 6.47224 118.434 6.48503C118.009 6.48503 117.106 6.53617 116.436 6.58732ZM150.862 6.83024C151.249 6.74074 152.087 6.62567 152.732 6.57453C153.376 6.52339 154.679 6.5106 155.633 6.54896C156.587 6.57453 157.618 6.66403 157.915 6.72796C158.047 6.75535 158.208 6.78979 158.369 6.82422L158.37 6.82427C158.584 6.87018 158.799 6.9161 158.946 6.94532C159.217 6.99646 159.81 7.25217 160.274 7.50789C160.739 7.75082 161.306 8.18553 161.538 8.45403C161.77 8.73532 162.08 9.32346 162.221 9.78374C162.454 10.4742 162.492 10.8066 162.428 11.7655C162.389 12.392 162.299 13.2359 162.234 13.6195C162.17 14.003 161.951 14.783 161.757 15.3455C161.577 15.9081 161.254 16.6497 161.074 16.9949C160.88 17.3401 160.494 17.8771 160.21 18.1967C159.926 18.5036 159.398 18.9255 159.05 19.1301C158.689 19.3219 158.057 19.6032 157.631 19.7438C157.206 19.8845 156.445 20.0635 155.955 20.1274C155.452 20.2041 154.64 20.268 154.15 20.268C153.647 20.268 152.667 20.1657 151.958 20.0507C151.249 19.9484 150.217 19.8333 148.67 19.7566L148.554 20.1657C148.49 20.3959 148.335 21.0224 148.219 21.5466C148.09 22.0836 148.025 22.6973 148.064 22.953C148.116 23.196 148.283 23.5284 148.438 23.6818C148.606 23.848 148.941 24.027 149.186 24.1037C149.457 24.1805 151.507 24.2316 154.305 24.2316C154.36 25.0501 153.892 26.8865 151.571 27.6837C150.359 27.7349 148.773 27.7605 148.025 27.7221C147.2 27.6837 146.336 27.5559 145.833 27.4025C145.369 27.2618 144.737 27.0189 144.415 26.8782C144.093 26.7248 143.603 26.3668 143.306 26.0855C142.932 25.7147 142.7 25.3312 142.494 24.6791C142.236 23.9247 142.197 23.6179 142.262 22.6973C142.3 22.0964 142.391 21.2397 142.468 20.7795C142.533 20.3192 142.687 19.6032 142.803 19.1812C142.907 18.7593 143.061 18.1072 143.126 17.7365C143.164 17.5575 143.21 17.3145 143.255 17.0716C143.3 16.8287 143.345 16.5857 143.384 16.4067C143.448 16.036 143.603 15.3839 143.719 14.962C143.822 14.54 143.964 13.9391 144.028 13.6195C144.093 13.2998 144.247 12.7245 144.389 12.3409C144.531 11.9573 144.75 11.4075 144.879 11.1262C145.021 10.845 145.305 10.3591 145.524 10.0395C145.743 9.71981 146.233 9.18281 146.62 8.85039C147.007 8.50517 147.6 8.07046 147.961 7.86589C148.309 7.6741 148.954 7.39282 149.379 7.25217C149.805 7.11153 150.475 6.91974 150.862 6.83024ZM173.555 6.6001C172.885 6.65124 172.008 6.75353 171.621 6.83024C171.234 6.91974 170.538 7.09874 170.074 7.25217C169.61 7.4056 168.939 7.69967 168.591 7.90424C168.23 8.10882 167.688 8.50517 167.379 8.79924C167.069 9.09331 166.592 9.68146 166.309 10.1034C166.038 10.5253 165.664 11.2413 165.496 11.7016C165.329 12.1619 165.084 12.9035 164.968 13.3637C164.852 13.824 164.71 14.4889 164.658 14.8341C164.607 15.1921 164.465 15.8186 164.349 16.2405C164.233 16.6625 164.091 17.3017 164.027 17.647C163.962 18.005 163.756 19.0022 163.549 19.8845C163.317 20.9201 163.176 21.9557 163.15 22.8252C163.111 23.9503 163.15 24.2827 163.369 24.8709C163.524 25.2545 163.833 25.7659 164.052 25.996C164.284 26.239 164.697 26.5586 164.981 26.7248C165.264 26.891 165.986 27.1723 166.592 27.3385C167.392 27.5687 168.127 27.6837 169.3 27.7221C170.19 27.7605 171.466 27.7477 172.137 27.6837C172.807 27.6198 174.006 27.4792 174.78 27.3769C175.966 27.2107 176.237 27.1212 176.43 26.891C176.559 26.7248 176.662 26.4052 176.65 26.1878C176.65 25.9577 176.701 25.638 176.766 25.4846C176.817 25.3184 176.907 24.9732 176.959 24.7175L177.036 24.2316C171.453 24.2316 170.641 24.1932 170.138 24.0398C169.777 23.9247 169.429 23.7457 169.339 23.6179C169.249 23.5028 169.184 23.0297 169.184 22.5695C169.184 22.1092 169.236 21.4827 169.313 21.163C169.39 20.8434 169.494 20.2936 169.558 19.9484C169.622 19.5904 169.764 18.9383 169.88 18.478C169.996 18.0177 170.138 17.3912 170.203 17.0716C170.229 16.9073 170.273 16.6756 170.318 16.437L170.318 16.4368C170.36 16.2112 170.403 15.9794 170.435 15.793C170.512 15.4095 170.667 14.719 170.783 14.2587C170.899 13.7985 171.041 13.172 171.105 12.8523C171.17 12.5327 171.324 12.0468 171.453 11.7655C171.582 11.4842 171.802 11.1007 171.943 10.9089C172.085 10.7299 172.472 10.4614 172.807 10.308C173.387 10.0522 173.645 10.0395 176.714 10.0395H180.002C180.182 9.59196 180.324 9.05496 180.44 8.5691C180.556 8.08324 180.647 7.57182 180.647 7.44396C180.647 7.32889 180.569 7.18824 180.479 7.1371C180.402 7.09874 179.834 7.00924 179.228 6.9581C178.622 6.90696 177.526 6.76632 176.779 6.66403C176.031 6.54896 175.283 6.47224 175.102 6.48503C174.922 6.48503 174.226 6.53617 173.555 6.6001ZM73.8728 6.48509C73.8728 6.31888 73.9631 6.0248 74.0791 5.82023L74.2725 5.43666H76.5032C78.1278 5.43666 78.8756 5.4878 79.3011 5.62845C79.6235 5.73073 80.0232 5.96088 80.2037 6.15266C80.4487 6.40838 80.5389 6.6513 80.5776 7.20109C80.6034 7.61023 80.5518 8.24952 80.4745 8.63309C80.452 8.72849 80.424 8.85 80.3921 8.98797C80.296 9.4047 80.1652 9.97163 80.049 10.4231C79.9071 11.024 79.7653 11.6505 79.7266 11.8295C79.7008 12.0085 79.5461 12.5199 79.3914 12.9802C79.2109 13.5556 78.9788 13.9519 78.6564 14.2588C78.3212 14.5784 77.9473 14.7702 77.3284 14.9237C76.6837 15.0899 75.9358 15.1538 74.4402 15.1538C72.7511 15.1666 72.3772 15.1282 72.2353 14.962C72.158 14.8597 72.1193 14.6935 72.1709 14.604C72.2095 14.5273 72.2998 14.1565 72.3514 13.8113C72.4029 13.4661 72.5963 12.4816 72.7898 11.6377C72.9703 10.7939 73.1766 9.80937 73.241 9.46416C73.3055 9.11895 73.4731 8.36459 73.6279 7.80202C73.7697 7.23945 73.8857 6.6513 73.8728 6.48509ZM114.836 10.8067C115.017 10.6404 115.442 10.3975 115.778 10.2824C116.177 10.1418 116.809 10.0651 117.634 10.0523C118.627 10.0523 119.014 10.1034 119.478 10.2952C119.801 10.4359 120.123 10.6916 120.2 10.845C120.291 11.0368 120.316 11.5866 120.278 12.4049C120.239 13.1081 120.149 13.9775 120.071 14.3227C120.007 14.6807 119.852 15.3456 119.736 15.7931C119.62 16.2534 119.465 16.9182 119.401 17.2634C119.336 17.6214 119.143 18.5676 118.962 19.3731C118.769 20.1914 118.576 21.0736 118.524 21.3549C118.46 21.6362 118.305 22.1348 118.163 22.4417C118.021 22.7613 117.763 23.196 117.583 23.4006C117.402 23.6179 116.977 23.8864 116.629 24.0143C116.177 24.1805 115.61 24.2444 114.604 24.2444C113.689 24.2444 113.057 24.1677 112.735 24.0527C112.477 23.9504 112.167 23.7074 112.064 23.5157C111.961 23.3367 111.871 22.9147 111.884 22.5823C111.884 22.2627 111.961 21.5978 112.038 21.0992L112.05 21.0388C112.139 20.5576 112.26 19.9083 112.309 19.5649C112.374 19.2197 112.516 18.5804 112.632 18.1584C112.748 17.7365 112.889 17.11 112.954 16.752C113.018 16.4068 113.225 15.4223 113.418 14.5784C113.612 13.7346 113.805 12.8524 113.857 12.5967C113.908 12.3537 114.076 11.919 114.218 11.6377C114.372 11.3564 114.643 10.9857 114.836 10.8067ZM151.687 10.2952C151.39 10.4231 151.042 10.6916 150.9 10.8962C150.771 11.1007 150.565 11.5099 150.449 11.8039C150.32 12.098 150.101 12.8779 149.946 13.53C149.804 14.1821 149.624 15.0259 149.559 15.4095C149.495 15.8059 149.431 16.2662 149.418 16.4324L149.392 16.752C154.201 16.752 154.459 16.7392 154.872 16.4963C155.117 16.3557 155.452 16.0104 155.607 15.7292C155.761 15.4479 155.942 14.962 156.019 14.6424C156.084 14.3355 156.264 13.4917 156.419 12.7884C156.638 11.7656 156.664 11.4204 156.561 11.0368C156.466 10.7214 156.277 10.4785 155.993 10.308C155.632 10.0779 155.349 10.0523 153.905 10.0523C152.551 10.0523 152.125 10.1034 151.687 10.2952Z" fill="white"/>
<path fill-rule="evenodd" clip-rule="evenodd" d="M151.687 10.2954C151.39 10.4232 151.042 10.6917 150.9 10.8963C150.771 11.1009 150.565 11.51 150.449 11.8041C150.32 12.0981 150.101 12.8781 149.946 13.5301C149.804 14.1822 149.624 15.0261 149.559 15.4096C149.495 15.806 149.43 16.2663 149.418 16.4325L149.392 16.7521C154.201 16.7521 154.459 16.7394 154.872 16.4964C155.117 16.3558 155.452 16.0106 155.607 15.7293C155.761 15.448 155.942 14.9621 156.019 14.6425C156.084 14.3356 156.264 13.4918 156.419 12.7886C156.638 11.7657 156.664 11.4205 156.561 11.0369C156.466 10.7215 156.277 10.4786 155.993 10.3081C155.632 10.078 155.349 10.0524 153.905 10.0524C152.551 10.0524 152.125 10.1036 151.687 10.2954ZM152.732 6.57473C152.087 6.62587 151.249 6.74094 150.862 6.83044C150.475 6.91994 149.805 7.11173 149.379 7.25237C148.954 7.39301 148.309 7.6743 147.961 7.86609C147.6 8.07066 147.007 8.50537 146.62 8.85059C146.233 9.18301 145.743 9.72001 145.524 10.0397C145.305 10.3593 145.021 10.8452 144.879 11.1264C144.75 11.4077 144.531 11.9575 144.389 12.3411C144.247 12.7247 144.093 13.3 144.028 13.6197C143.964 13.9393 143.822 14.5402 143.719 14.9622C143.603 15.3841 143.448 16.0362 143.384 16.4069C143.345 16.5859 143.3 16.8289 143.255 17.0718C143.209 17.3147 143.164 17.5577 143.126 17.7367C143.061 18.1074 142.906 18.7595 142.803 19.1814C142.687 19.6034 142.533 20.3194 142.468 20.7797C142.391 21.2399 142.3 22.0966 142.262 22.6975C142.197 23.6181 142.236 23.9249 142.494 24.6793C142.7 25.3314 142.932 25.7149 143.306 26.0857C143.603 26.367 144.093 26.725 144.415 26.8784C144.737 27.0191 145.369 27.262 145.833 27.4027C146.336 27.5561 147.2 27.6839 148.025 27.7223C148.773 27.7607 150.359 27.7351 151.571 27.6839C153.892 26.8867 154.36 25.0503 154.305 24.2318C151.507 24.2318 149.456 24.1807 149.186 24.1039C148.941 24.0272 148.606 23.8482 148.438 23.682C148.283 23.5286 148.116 23.1962 148.064 22.9532C148.025 22.6975 148.09 22.0838 148.219 21.5468C148.335 21.0226 148.489 20.3961 148.554 20.1659L148.67 19.7568C150.217 19.8335 151.249 19.9486 151.958 20.0509C152.667 20.1659 153.647 20.2682 154.15 20.2682C154.64 20.2682 155.452 20.2043 155.955 20.1276C156.445 20.0637 157.206 19.8847 157.631 19.744C158.057 19.6034 158.688 19.3221 159.049 19.1303C159.398 18.9257 159.926 18.5038 160.21 18.1969C160.494 17.8773 160.88 17.3403 161.074 16.9951C161.254 16.6499 161.577 15.9083 161.757 15.3457C161.951 14.7832 162.17 14.0032 162.234 13.6197C162.299 13.2361 162.389 12.3922 162.428 11.7657C162.492 10.8068 162.453 10.4744 162.221 9.78394C162.08 9.32366 161.77 8.73551 161.538 8.45423C161.306 8.18573 160.739 7.75101 160.274 7.50809C159.81 7.25237 159.217 6.99666 158.946 6.94551C158.799 6.91629 158.584 6.87037 158.37 6.82444L158.37 6.82444L158.369 6.82443L158.369 6.82442L158.369 6.82441C158.208 6.78997 158.047 6.75555 157.915 6.72816C157.618 6.66423 156.587 6.57473 155.633 6.54916C154.678 6.5108 153.376 6.52359 152.732 6.57473Z" fill="white"/>
<path fill-rule="evenodd" clip-rule="evenodd" d="M10.425 28.5711C9.5706 27.9908 8.23666 27.0847 9.68013 24.3269C12.9145 13.9753 30.8566 -4.94743 49.3317 1.20273C49.6173 1.30466 50.1575 1.89586 50.0342 3.44522C49.9712 4.23654 49.8424 4.57406 49.7121 4.91554C49.5648 5.30168 49.4155 5.69286 49.3572 6.75091C46.1076 4.74473 42.344 3.59811 38.3323 3.59811C26.0502 3.59811 16.0936 14.3454 16.0936 27.6029C16.0936 28.2109 16.1145 28.8136 16.1556 29.4102L10.7994 28.8431C10.6984 28.7568 10.5685 28.6685 10.425 28.5711Z" fill="white"/>
<path d="M40.5117 10.7596C33.5351 6.72312 29.2782 14.6534 28.0217 19.1384C27.9121 19.818 27.976 19.8293 28.0217 19.75C30.4341 17.7385 37.2302 18.4214 40.5117 17.4565C43.719 16.111 42.3187 11.8051 40.5117 10.7596Z" fill="white"/>
<path d="M35.6168 29.4208C29.3228 29.5567 27.8922 24.6994 27.9637 22.2538C32.3444 23.001 41.3236 21.0932 45.2656 20.0459C45.0017 20.6573 43.4843 29.251 35.6168 29.4208Z" fill="white"/>
</svg>
