<svg width="44" height="44" viewBox="0 0 44 44" fill="none" xmlns="http://www.w3.org/2000/svg">
<path d="M33.6546 2.95924C33.8423 2.64661 34.1465 2.42133 34.5003 2.33297C34.854 2.24461 35.2284 2.3004 35.5411 2.48807L35.5466 2.49174L35.5521 2.4954L35.5704 2.5064C35.6417 2.55045 35.7114 2.59692 35.7794 2.64574C35.9102 2.73618 36.0795 2.86574 36.2873 3.0344C36.6942 3.37357 37.2259 3.8814 37.7576 4.57074C38.8246 5.95857 39.8751 8.07974 39.8751 11.0002C39.8751 13.9207 38.8246 16.0419 37.7576 17.4297C37.2259 18.1191 36.6942 18.6269 36.2873 18.9661C36.0665 19.1506 35.8351 19.322 35.5943 19.4794L35.5704 19.4941L35.5521 19.5051L35.5466 19.5087L35.5429 19.5106C35.5429 19.5106 35.5411 19.5124 34.8334 18.3336L35.5411 19.5124C35.2297 19.6891 34.8616 19.7374 34.5152 19.647C34.1687 19.5566 33.8712 19.3345 33.6859 19.0282C33.5006 18.7218 33.4421 18.3552 33.5229 18.0064C33.6036 17.6575 33.8173 17.354 34.1184 17.1602L34.1276 17.1529L34.2009 17.1034C34.2755 17.0521 34.3836 16.969 34.5254 16.8541C34.8059 16.6194 35.1909 16.2564 35.5759 15.7541C36.3423 14.7586 37.1251 13.2131 37.1251 11.0002C37.1251 8.7874 36.3423 7.2419 35.5778 6.2464C35.2682 5.8424 34.9153 5.47353 34.5254 5.1464C34.3974 5.04084 34.2646 4.94113 34.1276 4.84757L34.1184 4.84024C33.8085 4.65138 33.5859 4.34766 33.499 3.9953C33.4121 3.64294 33.468 3.27052 33.6546 2.95924ZM18.3334 18.3336C20.2783 18.3336 22.1436 17.561 23.5189 16.1857C24.8941 14.8104 25.6667 12.9452 25.6667 11.0002C25.6667 9.05532 24.8941 7.19005 23.5189 5.81479C22.1436 4.43952 20.2783 3.6669 18.3334 3.6669C16.3885 3.6669 14.5232 4.43952 13.148 5.81479C11.7727 7.19005 11.0001 9.05532 11.0001 11.0002C11.0001 12.9452 11.7727 14.8104 13.148 16.1857C14.5232 17.561 16.3885 18.3336 18.3334 18.3336ZM3.66675 32.0836C3.66675 36.6394 3.66675 40.3336 18.3334 40.3336C33.0001 40.3336 33.0001 36.6394 33.0001 32.0836C33.0001 27.5277 26.4331 23.8336 18.3334 23.8336C10.2337 23.8336 3.66675 27.5277 3.66675 32.0836Z" fill="#222222"/>
<path d="M31.8743 6.1544C31.7194 6.06119 31.5477 5.99944 31.3689 5.97268C31.1901 5.94591 31.0078 5.95466 30.8324 5.99842C30.657 6.04218 30.492 6.1201 30.3467 6.22771C30.2015 6.33533 30.0789 6.47053 29.986 6.62557L30.4443 8.5029L30.4571 8.51207L30.5726 8.6019C30.6826 8.69357 30.8366 8.8384 30.9943 9.0419C31.4201 9.60439 31.6424 10.2947 31.625 10.9999C31.6424 11.7051 31.4201 12.3954 30.9943 12.9579C30.8406 13.159 30.6598 13.3379 30.4571 13.4896L30.4425 13.4969C30.1376 13.6896 29.9207 13.9944 29.8385 14.3456C29.7562 14.6967 29.8153 15.0662 30.0028 15.3742C30.1904 15.6823 30.4915 15.9043 30.8412 15.9924C31.1909 16.0805 31.5613 16.0278 31.8725 15.8454H31.8761L31.8798 15.8417L31.8853 15.8399L31.8981 15.8307L31.9348 15.8087C32.074 15.7188 32.2069 15.6196 32.3326 15.5117C32.5691 15.3156 32.8716 15.0259 33.1741 14.6336C33.9693 13.5906 34.3921 12.3113 34.375 10.9999C34.3921 9.68851 33.9693 8.40919 33.1741 7.36624C32.8496 6.94386 32.4655 6.57085 32.0338 6.2589L31.9348 6.19107L31.8981 6.16907L31.8853 6.1599L31.8798 6.15807L31.8761 6.15624C31.8761 6.15624 31.8743 6.1544 31.1666 7.33324L31.8743 6.1544Z" fill="#222222"/>
</svg>
